<?xml version="1.0" standalone="no"?>
<!DOCTYPE svg PUBLIC "-//W3C//DTD SVG 1.1//EN" "http://www.w3.org/Graphics/SVG/1.1/DTD/svg11.dtd" >
<!--
2013-9-30: Created.
-->
<svg>
<metadata>
Created by iconfont
</metadata>
<defs>

<font id="iconfont" horiz-adv-x="1024" >
  <font-face
    font-family="iconfont"
    font-weight="500"
    font-stretch="normal"
    units-per-em="1024"
    ascent="896"
    descent="-128"
  />
    <missing-glyph />
    
    <glyph glyph-name="x" unicode="x" horiz-adv-x="1001"
d="M281 543q-27 -1 -53 -1h-83q-18 0 -36.5 -6t-32.5 -18.5t-23 -32t-9 -45.5v-76h912v41q0 16 -0.5 30t-0.5 18q0 13 -5 29t-17 29.5t-31.5 22.5t-49.5 9h-133v-97h-438v97zM955 310v-52q0 -23 0.5 -52t0.5 -58t-10.5 -47.5t-26 -30t-33 -16t-31.5 -4.5q-14 -1 -29.5 -0.5
t-29.5 0.5h-32l-45 128h-439l-44 -128h-29h-34q-20 0 -45 1q-25 0 -41 9.5t-25.5 23t-13.5 29.5t-4 30v167h911zM163 247q-12 0 -21 -8.5t-9 -21.5t9 -21.5t21 -8.5q13 0 22 8.5t9 21.5t-9 21.5t-22 8.5zM316 123q-8 -26 -14 -48q-5 -19 -10.5 -37t-7.5 -25t-3 -15t1 -14.5
t9.5 -10.5t21.5 -4h37h67h81h80h64h36q23 0 34 12t2 38q-5 13 -9.5 30.5t-9.5 34.5q-5 19 -11 39h-368zM336 498v228q0 11 2.5 23t10 21.5t20.5 15.5t34 6h188q31 0 51.5 -14.5t20.5 -52.5v-227h-327z" />
    

    
    <glyph glyph-name="msnui-intelligence" unicode="&#59049;" d="M828.238 549.854h-249.802v-32.993h249.803v32.993zM578.437 318.906h66.658v32.992h-66.658v-32.992zM828.238 450.876h-249.802v-32.993h249.803v32.993zM811.406 351.898c-82.925 0-150.151-66.616-150.151-148.803s67.226-148.803 150.151-148.803c82.923 0 150.149 66.617 150.149 148.803 0 82.188-67.225 148.803-150.149 148.803zM810.688 109.61c-7.932-7.765-20.788-7.765-28.719 0l-64.598 63.27c-7.911 7.765-7.911 20.357 0 28.122 7.933 7.763 20.788 7.763 28.702 0l50.245-49.207 96.915 94.897c7.912 7.764 20.79 7.764 28.702 0 7.933-7.763 7.933-20.346 0-28.111l-111.248-108.971zM138.086 120.276c-23.798 0-43.093 19.296-43.093 43.093v476.037c0 23.798 19.295 43.093 43.093 43.093h729.879c23.796 0 43.093-19.295 43.093-43.093v-283.769c12.325-7.951 23.626-17.332 33.664-27.908v323.123c0 35.697-28.932 64.64-64.64 64.64h-753.442c-35.708 0-64.64-28.943-64.64-64.64v-498.93c0-35.696 28.932-64.638 64.64-64.638h543.59c-8.445 10.132-15.805 21.187-21.903 32.993h-510.24zM204.113 566.761c-14.12 0-25.565-11.108-25.565-24.828v-297.88c0-13.708 11.446-24.818 25.565-24.818h281.132c14.098 0 26.617 11.11 26.617 24.818v297.88c0 13.719-12.519 24.828-26.617 24.828h-281.132zM228.752 252.699c0 0-2.567 24.861 10.816 41.547 7.701 7.111 11.91 26.048 52.836 31.877 40.925 5.828 27.227 49.593 28.574 48.942 1.326-0.652-0.358 9.384-0.358 9.384s-22.682 27.626-22.346 52.561c0.337 24.924 0 20.789 0 20.789s-0.821 59.147 41.031 59.147l32.404-10.921c37.6 0 40.252-48.226 40.252-48.226v-24.428c0 0 0.105-34.129-23.483-46.87 0 0-1.662-10.036-0.337-9.384 1.347 0.641-22.282-45.165 18.664-50.993 40.946-5.829 52.204-24.083 59.925-31.204 7.702-7.122 11.511-42.22 11.511-42.22h-249.487z"  horiz-adv-x="1025" />

    
    <glyph glyph-name="xiangshangshouqi" unicode="&#58946;" d="M512 281.344 857.344-64 945.344 24 512 457.344 78.656 24 166.656-63.872ZM512 655.936 857.344 310.656 945.344 398.656 512 832 78.656 398.656 166.656 310.656Z"  horiz-adv-x="1024" />

    
    <glyph glyph-name="xiangxiazhankai" unicode="&#58947;" d="M512.064 486.656 166.72 832 78.72 744 512.064 310.656 945.28 744 857.28 832ZM512.064 112.128 166.72 457.344 78.72 369.344 512.064-64 945.28 369.344 857.28 457.28Z"  horiz-adv-x="1024" />

    
    <glyph glyph-name="unie64d" unicode="&#59056;" d="M539.712 884c-282.784 0-512-229.248-512-512s229.216-512 512-512c282.752 0 512 229.248 512 512s-229.248 512-512 512zM270.528-36.96c1.536-0.928 2.976-1.856 4.608-2.816-0.032 1.728-0.128 3.424-0.128 5.12 0 140.992 110.304 256.192 249.312 264.128 5.056-0.32 10.112-0.544 15.264-0.544s10.208 0.224 15.264 0.544c139.008-7.904 249.344-123.104 249.344-264.128 0-1.824-0.064-3.616-0.128-5.44-76.096-49.888-166.816-78.976-264.32-78.976-99.584 0-192.128 30.272-269.184 82.112zM355.296 448.192c0 99.456 82.496 180.064 184.288 180.064s184.288-80.608 184.288-180.064-82.528-180.064-184.288-180.064c-101.792 0-184.288 80.608-184.288 180.064zM835.712-17.472c-5.824 124.448-88.384 228.768-201.408 266.848 76.608 34.912 129.696 110.784 129.696 198.816 0 121.12-100.48 219.296-224.416 219.296s-224.416-98.176-224.416-219.296c0-88.032 53.12-163.904 129.696-198.816-112.992-38.08-195.456-142.336-201.376-266.72-115.2 89.568-189.504 230.048-189.504 388.096 0 270.528 217.44 489.856 485.728 489.856 268.224 0 485.728-219.296 485.728-489.856 0-158.144-74.4-298.688-189.728-388.256z"  horiz-adv-x="1056" />

    
    <glyph glyph-name="supplier" unicode="&#58891;" d="M991.121 412.727c0 266.484-216.788 483.273-483.273 483.273s-483.273-216.788-483.273-483.273c0-127.428 49.938-243.16 130.811-329.598v-210.51l109.734-0.374 115.014 0.367 0.007 74.495c40.755-11.198 83.442-17.681 127.706-17.681 43.615 0 85.69 6.333 125.909 17.216l0.007-74.031 115.011-0.367 109.738 0.374 0 208.534c81.952 86.638 132.607 203.187 132.607 331.575zM324.644-69.039h-115.482v102.573c34.976-27.611 73.691-50.61 115.482-67.802v-34.771zM81.308 412.727c0 235.182 191.359 426.541 426.541 426.541s426.541-191.359 426.541-426.541c0-235.21-191.359-426.568-426.541-426.568s-426.541 191.358-426.541 426.568zM689.252-69.039v34.111c41.759 16.984 80.475 39.741 115.486 67.12v-101.231l-115.486-0zM390.354 685.262c-18.654 3.752-41.698 11.828-62.308 21.829-4.935-33.653-20.548-94.106-36.090-131.477-22.438-54.201-69.591-128.039-99.46-161.661 17.436-11.863 35.933-12.767 44.653-27.094 20.544 29.263 35.477 51.058 54.806 88.464v-204.364c0-44.841-3.109-98.433-6.893-133.945h56.092l0 443.599c19.33 39.234 42.373 78.498 49.875 85.965 13.044 13.077 12.435 16.186-0.674 18.685zM551.131 284.036c-19.33 6.248-36.765 14.327-55.487 23.683-19.935-39.87-82.852-114.007-129.552-142.661 26.156-6.861 47.985-20.58 53.593-32.407 99.007 110.902 118.333 129.587 127.728 133.949 18.65 8.107 18.045 13.074 3.718 17.436zM663.857 518.305c36.761-0.641 66.701-3.109 91.639-5.608v54.842c-25.547-2.503-54.877-5.002-91.639-5.612v92.18c0 20.58 2.499 32.404 8.715 36.156 8.787 4.967 8.111 9.969-2.432 9.969-23.11 0-37.438 0.605-56.092 3.714 1.894-13.683 2.499-43.588 2.499-97.179v-44.841h-89.139v91.572c0 20.544 2.503 32.408 8.787 36.121 8.72 5.002 8.044 9.969-2.499 9.969-23.047-0.609-38.051 0.645-56.7 3.752 1.824-14.327 2.499-31.763 2.499-97.183v-44.231c-29.94 1.218-55.483 3.109-81.638 5.612v-54.842c26.156 2.499 51.093 4.358 81.638 4.967v-139.556c-38.655 0.641-69.204 2.499-96.575 5.608v-56.666c46.091 4.358 110.902 6.217 196.257 6.217s150.772-1.858 196.863-6.217v56.666c-32.439-3.714-65.417-5.608-112.183-5.608v140.199zM616.547 378.107h-89.139v140.198h89.139v-140.198zM652.637 303.971l-42.307-31.763c36.090-32.404 84.071-90.963 111.511-131.446l49.804 42.373c-41.088 47.949-72.851 79.104-119.008 120.836z"  horiz-adv-x="1024" />

    
    <glyph glyph-name="noread" unicode="&#58920;" d="M884.364 721.091l-744.727 0c-51.433 0-93.091-41.705-93.091-93.091l0-558.545c0-51.433 41.658-93.091 93.091-93.091l744.727 0c51.433 0 93.091 41.658 93.091 93.091l0 558.545c0 51.386-41.658 93.091-93.091 93.091zM930.909 69.455c0-25.693-20.852-46.545-46.545-46.545l-744.727 0c-25.693 0-46.545 20.852-46.545 46.545l0 558.545c0 25.693 20.852 46.545 46.545 46.545l744.727 0c25.693 0 46.545-20.852 46.545-46.545l0-558.545zM313.577 264.713l-148.108-148.108c-9.076-9.076-9.076-23.831 0-32.908 9.076-9.076 23.831-9.076 32.908 0l148.108 148.108c9.076 9.076 9.076 23.831 0 32.908-9.076 9.076-23.785 9.076-32.908 0zM544.908 326.153c-18.199-18.199-47.663-18.199-65.815 0l-278.575 278.575-65.862 0 344.436-344.436c18.199-18.153 47.663-18.153 65.815 0l344.436 344.436-65.815 0-278.621-278.575zM710.423 264.713c-9.076 9.076-23.831 9.076-32.908 0-9.076-9.076-9.076-23.831 0-32.908l148.108-148.108c9.076-9.076 23.831-9.076 32.908 0 9.076 9.076 9.076 23.831 0 32.908l-148.108 148.108z"  horiz-adv-x="1024" />

    
    <glyph glyph-name="zoomin" unicode="&#58899;" d="M828.462 700.764c-174.906 174.908-458.486 174.908-633.393 0-174.906-174.906-174.906-458.486 0-633.393s458.486-174.906 633.393 0 174.907 458.486 0 633.393v0zM722.382 421.389v-63.972l-431.883-0v63.972l431.883 0zM722.382 421.389z"  horiz-adv-x="1025" />

    
    <glyph glyph-name="zizhishenhe" unicode="&#58908;" d="M800 19.2c-6.4 6.4-25.6 6.4-32 0-6.4-6.4-6.4-25.6 0-32l102.4-96c6.4-6.4 12.8-6.4 19.2-6.4 6.4 0 12.8 0 19.2 6.4 6.4 6.4 6.4 25.6 0 32L800 19.2zM800 896 224 896C160 896 102.4 838.4 102.4 774.4l0-780.8c0-70.4 57.6-121.6 121.6-121.6l416 0c12.8 0 25.6 12.8 25.6 25.6 0 12.8-12.8 25.6-25.6 25.6L224-76.8c-38.4 0-70.4 32-70.4 70.4L153.6 774.4c0 38.4 32 70.4 70.4 70.4l569.6 0c38.4 0 70.4-32 70.4-70.4l0-627.2c0-12.8 12.8-25.6 25.6-25.6 12.8 0 25.6 12.8 25.6 25.6L915.2 774.4C921.6 838.4 864 896 800 896zM281.6 678.4l473.6 0c6.4 0 12.8 6.4 12.8 12.8S761.6 704 755.2 704L281.6 704C275.2 704 268.8 697.6 268.8 691.2S275.2 678.4 281.6 678.4zM281.6 518.4l473.6 0c6.4 0 12.8 6.4 12.8 12.8s-6.4 12.8-12.8 12.8L281.6 544c-6.4 0-12.8-6.4-12.8-12.8S275.2 518.4 281.6 518.4zM268.8 96c0-6.4 6.4-12.8 12.8-12.8l96 0c38.4-70.4 115.2-115.2 198.4-115.2 128 0 236.8 108.8 236.8 236.8s-108.8 236.8-236.8 236.8c-108.8 0-204.8-76.8-230.4-179.2L281.6 262.4c-6.4 0-12.8-6.4-12.8-12.8s6.4-12.8 12.8-12.8l64 0c0-12.8 0-25.6 0-32 0-32 6.4-70.4 19.2-96L281.6 108.8C275.2 102.4 268.8 102.4 268.8 96zM582.4 19.2c-51.2 0-96 19.2-128 51.2l256 0C678.4 38.4 627.2 19.2 582.4 19.2zM582.4 390.4c76.8 0 147.2-44.8 172.8-115.2L409.6 275.2C435.2 345.6 505.6 390.4 582.4 390.4zM396.8 224 768 224c0-6.4 0-12.8 0-25.6 0-32-6.4-57.6-19.2-83.2L416 115.2c-12.8 25.6-19.2 57.6-19.2 83.2C390.4 211.2 396.8 217.6 396.8 224z"  horiz-adv-x="1024" />

    
    <glyph glyph-name="xiaoxizhongxin" unicode="&#58903;" d="M528.86204 539.771763 292.817022 539.771763c-15.498996 0-28.101012 12.941753-28.101012 28.953426 0 15.94925 12.600993 28.895097 28.101012 28.895097l236.045017 0c15.496949 0 28.098965-12.944823 28.098965-28.895097C556.961004 552.713516 544.358989 539.771763 528.86204 539.771763L528.86204 539.771763zM725.565027 429.019333 292.817022 429.019333c-15.498996 0-28.101012 12.93766-28.101012 28.891004 0 15.94925 12.600993 28.898167 28.101012 28.898167l432.748005 0c15.498996 0 28.101012-12.948917 28.101012-28.898167C753.665015 441.958016 741.064023 429.019333 725.565027 429.019333L725.565027 429.019333zM725.565027 313.378569 292.817022 313.378569c-15.498996 0-28.101012 12.945847-28.101012 28.898167 0 15.94925 12.600993 28.891004 28.101012 28.891004l432.748005 0c15.498996 0 28.101012-12.941753 28.101012-28.891004C753.665015 326.324416 741.064023 313.378569 725.565027 313.378569L725.565027 313.378569zM736.805022 164.986891 736.805022 29.02122c0-9.593496-5.220908-18.503423-13.794168-23.387663-4.426823-2.554172-9.368368-3.801583-14.304797-3.801583-4.656043 0-9.312086 1.137916-13.513782 3.348258L438.940031 141.14181 353.955474 141.14181c-158.045549 0-291.565519 135.336338-291.565519 295.54004l0 50.921763c0 153.61668 130.795928 278.565437 291.565519 278.565437l316.088028 0c160.76959 0 291.566542-124.948757 291.566542-278.565437l0-50.921763C961.610044 303.898661 872.256994 197.284481 736.805022 164.986891L736.805022 164.986891zM886.673331 489.929588c0 119.270431-100.536764 201.303772-224.122477 201.303772L361.449145 691.23336c-123.585713 0-224.124524-82.033341-224.124524-201.303772l0-49.164746c0-123.975593 104.737436-232.69369 224.124524-232.69369l87.820138 0c4.484128 0 8.912997-1.133823 12.888542-3.230578l210.385615-113.086591L672.54344 199.95224c0 12.721743 9.367345 23.614837 22.196535 25.832342 116.602671 19.981077 191.933357 104.341417 191.933357 214.981283L886.673331 489.929588 886.673331 489.929588z"  horiz-adv-x="1024" />

    
    <glyph glyph-name="yonhu" unicode="&#58967;" d="M368.071 362.604c106.49 0 193.128 86.533 193.128 192.894s-86.637 192.892-193.128 192.892-193.128-86.531-193.128-192.892c0-106.362 86.637-192.894 193.128-192.894zM368.071 697.166c78.246 0 141.904-63.552 141.904-141.669 0-78.117-63.658-141.671-141.904-141.671s-141.904 63.553-141.904 141.671c-0 78.116 63.658 141.669 141.904 141.669zM782.22 357.603c50.316 21.135 85.738 70.876 85.738 128.729 0 76.961-62.684 139.573-139.732 139.573-77.048 0-139.731-62.612-139.731-139.573 0-62.971 41.97-116.327 99.431-133.648-44.631-12.485-84.175-39.092-112.365-75.757-56.391 53.006-129.938 82.103-207.992 82.103-80.692 0-156.567-31.094-213.65-87.555-57.158-56.534-88.637-131.723-88.637-211.715 0-5.132 0.132-10.312 0.393-15.398l1.247-24.298h601.293l1.249 24.296c0.262 5.091 0.395 10.271 0.395 15.4 0 18.185-1.644 36.117-4.83 53.642h293.555l1.245 24.301c0.184 3.605 0.277 7.275 0.277 10.906-0 104.698-77.017 191.903-177.885 208.994zM639.717 486.332c0 48.716 39.704 88.348 88.508 88.348s88.509-39.633 88.509-88.348c0-48.717-39.705-88.35-88.509-88.35s-88.508 39.634-88.508 88.35zM116.771 71.287c6.118 131.442 116.272 236.52 250.797 236.52 134.526 0 244.679-105.078 250.798-236.52h-501.595zM650.843 164.625c-9.828 26.062-23.338 50.706-40.301 73.281 29.898 44.148 80.53 71.522 135.466 71.522 84.339 0 153.91-63.614 162.073-144.803h-257.239z"  horiz-adv-x="1024" />

    
    <glyph glyph-name="chakanjindu" unicode="&#59108;" d="M201.856 571.584c80.64 118.656 204.8 201.856 353.984 201.856 225.28 0 409.6-184.32 409.6-409.6s-184.32-409.6-409.6-409.6c-196.032 0-362.816 140.416-400.832 324.736l-58.432 0c38.016-219.456 231.104-383.296 459.328-383.296 257.472 0 468.096 210.624 468.096 468.096s-210.624 468.224-468.096 468.224c-175.552 0-309.056-96.896-406.72-236.992l-27.136-46.72-58.048-100.416v171.2l-64 0.832v-256h256v64.384h-140.416M702.144 129.856c64.384 0 117.056 52.672 117.056 117.056s-52.672 117.056-117.056 117.056-117.056-52.672-117.056-117.056 52.736-117.056 117.056-117.056zM702.144 305.344c32.192 0 58.496-26.304 58.496-58.496s-26.304-58.496-58.496-58.496-58.496 26.304-58.496 58.496 26.368 58.496 58.496 58.496zM409.6 597.952c-64.384 0-117.056-52.672-117.056-117.056s52.672-116.992 117.056-116.992 117.056 52.672 117.056 117.056-52.672 116.992-117.056 116.992zM409.6 422.4c-32.192 0-58.496 26.304-58.496 58.496s26.304 58.56 58.496 58.56 58.496-26.304 58.496-58.496-26.304-58.56-58.496-58.56zM392.064 156.16l52.672-26.304 257.472 444.736-52.672 26.304-257.472-444.736z"  horiz-adv-x="1024" />

    
    <glyph glyph-name="jinyong" unicode="&#59122;" d="M1024-12.8c0-63.616-51.584-115.2-115.2-115.2h-793.6c-63.616 0-115.2 51.584-115.2 115.2v793.6c0 63.616 51.584 115.2 115.2 115.2h793.6c63.616 0 115.2-51.584 115.2-115.2v-793.6zM128 832c-38.4 0-64-25.6-64-64v-768c0-38.4 25.6-64 70.4-64h761.6c38.4 0 64 19.2 64 57.6v774.4c0 38.4-25.6 64-64 64h-768zM512 51.2c-185.6 0-332.8 147.2-332.8 332.8s147.2 332.8 332.8 332.8 332.8-147.2 332.8-332.8c-6.4-185.6-153.6-332.8-332.8-332.8zM512 652.8c-147.2 0-268.8-121.6-268.8-268.8s121.6-268.8 268.8-268.8 268.8 121.6 268.8 268.8-121.6 268.8-268.8 268.8zM663.097 192.146l-303.199 363.82 44.248 36.876 303.199-363.82-44.248-36.876z"  horiz-adv-x="1024" />

    
    <glyph glyph-name="quxiaojinyong" unicode="&#59125;" d="M480 172.8c-166.4 0-300.8 134.4-300.8 300.8s134.4 300.8 300.8 300.8 300.8-134.4 300.8-300.8-134.4-300.8-300.8-300.8zM480 710.4c-134.4 0-243.2-108.8-243.2-243.2s108.8-243.2 243.2-243.2 243.2 108.8 243.2 243.2c0 140.8-108.8 243.2-243.2 243.2zM612.113 305.822l-239.885 299.866 44.98 35.983 239.885-299.866-44.98-35.983zM576-128h-486.4c-51.2 0-89.6 38.4-89.6 89.6v844.8c0 51.2 38.4 89.6 89.6 89.6h844.8c51.2 0 89.6-38.4 89.6-89.6v-480h-57.6v480c0 19.2-12.8 32-32 32h-844.8c-19.2 0-32-12.8-32-32v-844.8c0-19.2 12.8-32 32-32h486.4v-57.6zM672-76.8l300.8 300.8 44.8-44.8-300.8-300.8-44.8 44.8zM672 179.2l44.8 44.8 300.8-300.8-44.8-44.8-300.8 300.8z"  horiz-adv-x="1024" />

    
    <glyph glyph-name="caigoudingdan" unicode="&#59062;" d="M467.676004 267.552871 343.346347 377.709737c-14.113439 12.426007-38.157042 12.426007-52.144614 0-7.306406-6.494924-11.302417-15.113209-11.302417-24.354688 0-9.3039 3.997034-17.984606 11.302417-24.478508l147.186224-130.452097c0.686638-1.060145 1.622964-2.559289 3.245927-3.996011 6.933923-6.119371 16.112979-9.491165 26.542516-9.491165l0.063445 0c0.060375 0 0.936325 0 0.9967 0 9.868765 0 19.10922 3.371794 26.103518 9.55461 1.622964 1.499144 2.622734 2.998287 3.435239 4.432962l233.488799 263.213797c7.242961 6.494924 11.238972 15.112186 11.238972 24.352641 0 9.305947-3.996011 17.984606-11.238972 24.479531-14.114462 12.364609-37.406958 13.114692-52.892651-0.748037L467.676004 267.552871zM895.373992 768.375298 703.537849 768.375298c0 35.157731-28.788673 63.945381-63.944358 63.945381L383.810944 832.320679c-35.155684 0-63.945381-28.78765-63.945381-63.945381L128.02942 768.375298c-35.157731 0-63.945381-28.786627-63.945381-63.944358l0-703.400215c0-35.156708 28.78765-63.944358 63.945381-63.944358l767.345596 0c35.155684 0 63.944358 28.78765 63.944358 63.944358l0 703.400215C959.319373 739.588671 930.5307 768.375298 895.373992 768.375298zM383.810944 768.375298l255.782547 0 0-63.944358L383.810944 704.43094 383.810944 768.375298zM895.373992 1.030725 128.02942 1.030725l0 703.400215 191.836143 0c0-35.157731 28.789697-63.945381 63.945381-63.945381l255.782547 0c35.155684 0 63.944358 28.78765 63.944358 63.945381l191.837166 0L895.375016 1.030725z"  horiz-adv-x="1024" />

    
    <glyph glyph-name="weibiaoti12" unicode="&#58911;" d="M960 320 64 320c-35.2 0-64 28.8-64 64 0 35.2 28.8 64 64 64l896 0c35.2 0 64-28.8 64-64C1024 348.8 995.2 320 960 320zM960 696 64 696c-35.2 0-64 28.8-64 64 0 35.2 28.8 64 64 64l896 0c35.2 0 64-28.8 64-64C1024 724.8 995.2 696 960 696zM64 72l896 0c35.2 0 64-28.8 64-64 0-35.2-28.8-64-64-64L64-56c-35.2 0-64 28.8-64 64C0 43.2 28.8 72 64 72z"  horiz-adv-x="1024" />

    
    <glyph glyph-name="moban" unicode="&#59038;" d="M955.092 132.737v102.226l-69.523 11.606c-0.643 1.619-1.314 3.235-2.012 4.845l40.981 57.363-72.292 72.296-57.379-40.952c-1.605 0.694-3.218 1.361-4.835 2.002l-11.605 69.505h-102.224l-11.606-69.519c-1.626-0.645-3.249-1.317-4.865-2.017l-57.343 40.986-15.317-15.318c-8.084 3.351-16.255 6.408-24.503 9.17 17.087 10.037 33.017 22.307 47.399 36.69 44.33 44.33 68.744 103.27 68.744 165.965 0 62.695-24.413 121.636-68.744 165.966-44.329 44.33-103.27 68.744-165.965 68.744-62.695 0-121.636-24.413-165.966-68.744-44.331-44.33-68.744-103.271-68.744-165.966 0-62.695 24.413-121.635 68.744-165.965 14.388-14.388 30.322-26.662 47.416-36.7-9.125-3.051-18.155-6.456-27.077-10.23-44.552-18.844-84.557-45.815-118.907-80.166-34.349-34.348-61.321-74.355-80.164-118.906-19.515-46.139-29.41-95.135-29.41-145.628h51.224c0 0.244 0.008 0.486 0.009 0.73l447.159-0 34.093-34.095 57.377 40.946c1.614-0.699 3.228-1.368 4.838-2.007l11.607-69.495h102.224l11.604 69.518c1.627 0.646 3.252 1.319 4.87 2.021l57.341-40.962 72.3 72.299-41.002 57.354c0.701 1.614 1.373 3.231 2.016 4.85l69.537 11.586zM260.516 577.588c0 101.174 82.312 183.486 183.486 183.486 101.173 0 183.485-82.312 183.485-183.486 0-101.173-82.312-183.484-183.485-183.484-101.175-0-183.486 82.311-183.486 183.484zM539.391 71.948h-414.075c24.924 153.425 158.33 270.934 318.685 270.934 35.589 0 70.209-5.661 103.324-16.864l-17.238-17.239 40.989-57.37c-0.697-1.612-1.365-3.224-2.005-4.839l-69.538-11.605v-102.224l69.531-11.61c0.646-1.629 1.315-3.244 2.006-4.842l-31.68-44.34zM855.621 64.659l-9.088-9.082-47.446 33.837-14.564-8.17c-7.929-4.42-16.368-7.907-25.115-10.37l-16.076-4.565-9.592-57.467h-12.85l-9.575 57.482-16.139 4.516c-8.561 2.401-17.007 5.902-25.092 10.403l-14.593 8.14-47.397-33.842-9.087 9.086 33.891 47.432-8.193 14.648c-4.408 7.849-7.895 16.274-10.37 25.073l-4.563 16.078-57.468 9.572v12.85l57.416 9.586 4.626 16.118c2.429 8.65 5.921 17.084 10.39 25.091l8.124 14.613-33.855 47.386 9.088 9.088 47.419-33.863 14.628 8.158c7.889 4.427 16.326 7.923 25.063 10.388l16.114 4.524 9.573 57.493h12.851l9.597-57.467 16.096-4.524c8.613-2.43 17.061-5.94 25.147-10.453l14.578-8.078 47.376 33.823 9.088-9.089-33.898-47.439 8.191-14.598c4.414-7.88 7.911-16.328 10.405-25.126l4.569-16.041 57.434-9.589v-12.845l-57.471-9.549-4.572-16.159c-2.398-8.57-5.889-17.002-10.379-25.060l-8.136-14.595 33.858-47.413zM727.311 268.035c-46.417 0-84.181-37.764-84.181-84.183 0-46.42 37.763-84.186 84.181-84.186 46.419 0 84.184 37.765 84.184 84.186 0 46.418-37.765 84.183-84.184 84.183zM727.311 152.936c-17.045 0-30.913 13.869-30.913 30.915s13.868 30.915 30.913 30.915c17.047 0 30.916-13.869 30.916-30.915s-13.869-30.915-30.916-30.915z"  horiz-adv-x="1024" />

    
    <glyph glyph-name="xiaoxizhongxin1" unicode="&#58981;" d="M585.6-9.6 585.6-9.6c25.6 32 38.4 44.8 41.6 44.8 208 38.4 345.6 198.4 345.6 396.8 3.2 227.2-204.8 406.4-460.8 406.4s-464-179.2-464-406.4c0-198.4 140.8-358.4 345.6-396.8 3.2 0 16-12.8 41.6-44.8l0 0c32-41.6 51.2-64 73.6-64S550.4-51.2 585.6-9.6M620.8 92.8c-19.2-3.2-32-19.2-67.2-64l0 0c-22.4-25.6-41.6-44.8-41.6-44.8l-9.6 9.6c-6.4 6.4-16 19.2-25.6 32-38.4 48-51.2 64-70.4 67.2-185.6 32-307.2 172.8-307.2 345.6 0 192 185.6 352 416 352s416-160 416-352C928 262.4 806.4 124.8 620.8 92.8zM281.6 425.6a1.4 1.5 0 1 0 89.6 0 1.4 1.5 0 1 0-89.6 0ZM467.2 425.6a1.4 1.5 0 1 0 89.6 0 1.4 1.5 0 1 0-89.6 0ZM652.8 425.6a1.4 1.5 0 1 0 89.6 0 1.4 1.5 0 1 0-89.6 0Z"  horiz-adv-x="1024" />

    
    <glyph glyph-name="xinzeng" unicode="&#58916;" d="M739.456 414.016 551.104 414.016 551.104 620.928c0 13.504-10.496 22.912-33.792 24.256S483.52 634.496 483.52 620.928l0-206.912L284.608 414.016c0 0-37.568 3.456-37.568-27.072 0-41.088 16.064-41.024 29.568-41.024l206.912 0-0.064-216.96c0-16.96-3.52-39.424 31.616-39.424 36.992 0 35.264 34.048 35.264 41.984l0.832 214.464 188.352 0c8.64 0 41.984-2.432 42.432 35.584S739.456 414.016 739.456 414.016zM518.592 853.952c-265.152 0-480-214.848-480-480 0-265.088 214.848-480 480-480s480 214.848 480 480S783.68 853.952 518.592 853.952zM518.592-41.984c-229.76 0-416 186.304-416 416 0 229.76 186.24 416 416 416s416-186.24 416-416C934.528 144.256 748.352-41.984 518.592-41.984z"  horiz-adv-x="1024" />

    
    <glyph glyph-name="leimupinleifenleileibie2" unicode="&#59384;" d="M320 832 192 832C121.6 832 64 774.4 64 704l0-128c0-70.4 57.6-128 128-128l128 0c70.4 0 128 57.6 128 128L448 704C448 774.4 390.4 832 320 832zM768 832l-128 0C569.6 832 512 774.4 512 704l0-128c0-70.4 57.6-128 128-128l128 0c70.4 0 128 57.6 128 128L896 704C896 774.4 838.4 832 768 832zM320 384 192 384c-70.4 0-128-57.6-128-128l0-128c0-70.4 57.6-128 128-128l128 0c70.4 0 128 57.6 128 128l0 128C448 326.4 390.4 384 320 384zM768 384l-128 0c-70.4 0-128-57.6-128-128l0-128c0-70.4 57.6-128 128-128l128 0c70.4 0 128 57.6 128 128l0 128C896 326.4 838.4 384 768 384z"  horiz-adv-x="1024" />

    
    <glyph glyph-name="icon-supplier" unicode="&#58942;" d="M480.851 831.81c-158.215 0-289.472-126.082-289.472-281.58 0-155.494 129.832-292.949 288.047-292.949 158.212 0 287.859 137.455 287.859 292.949-0 155.498-128.222 281.58-286.435 281.58zM479.342 320.618c-123.625 0-223.85 100.237-223.85 223.843 0 123.686 100.227 223.858 223.85 223.858 123.683 0 223.911-100.172 223.911-223.858-0.001-123.606-100.228-223.843-223.911-223.843zM127.855-63.194c0 182.376 165.963 320.907 351.476 320.907 99.927 0 199.124-34.883 274.167-120.841l47.566 40.046c-78.266 98.441-187.277 143.752-321.735 143.752-225.987 0-415.751-161.632-415.751-383.799l64.276-0.064zM941.432 126.783c0 0 30.774 24 8.927 49.3-22.071 25.56-50.277-1.132-50.277-1.132l-194.066-167.090-59.587 68.886c-14.777 17.114-29.342 23.305-48.033 7.164-16.983-14.664-14.324-31.813 0.254-48.695 0 0 73.318-85.262 75.626-87.531 8.236-8.070 19.321-11.707 30.124-11.466 10.786-0.211 21.639 3.659 29.851 11.755 1.689 1.668 207.181 178.808 207.181 178.808z"  horiz-adv-x="1024" />

    
    <glyph glyph-name="105" unicode="&#58919;" d="M346.5 36.175l-85.675-2.05L260.25 119.875C260.25 48.8 277.3 36.175 346.5 36.175zM371.3125 109.4125l-0.3375 463.3875c0 21.2625 16.3875 38.4875 36.6 38.4875 20.2125 0 36.6-17.225 36.6-38.4875l0.3375-463.3875c0-21.2625-16.3875-38.4875-36.6-38.4875C387.7 70.925 371.3125 88.1625 371.3125 109.4125zM567.6875 109.4125l-0.3375 463.3875c0 21.2625 16.3875 38.4875 36.6 38.4875 20.2125 0 36.6-17.225 36.6-38.4875l0.3375-463.3875c0-21.2625-16.3875-38.4875-36.6-38.4875C584.0625 70.925 567.6875 88.1625 567.6875 109.4125zM677.7 36.175c69.2 0 86.25 12.625 86.25 83.7125l-0.575-85.7625L677.7 36.175zM884.275 660.4875l-356.1125-0.1625c-0.5625-0.025-1.0875-0.15-1.65-0.15-0.5625 0-1.075 0.125-1.625 0.15l-37.7375-0.0125c-0.4875-0.0125-0.95-0.125-1.4375-0.125-0.4875 0-0.9375 0.1125-1.425 0.125l-224.3375-0.1 0.3-626.5875 503.975 0.2875-0.3125 538.9625c0 21.1 16.3875 38.2 36.6 38.2 20.2125 0 36.6-17.1 36.6-38.2l0.3125-533.3875c-0.6875-43.4625-33.325-78.5-73.6125-78.5l-36.875 0 0-0.2625-484.1125-0.2875c-30.85 7.5625-53.85 34.4125-55.7625 67.1l-0.3 632.6375-47.0375-0.025c-21.6 0-39.1 16.4625-39.1 36.7625s17.5125 36.7625 39.1 36.7625l82.65 0.0375c0.325 0.0125 0.6375 0.1 0.975 0.1 0.325 0 0.6375-0.1 0.9625-0.1l220.425 0.1-0.1875 37.2625c0 20.15 18.2625 36.5 40.8 36.5 9.025 0 31.775 0 40.8 0 22.5375 0 40.8-16.3375 40.8-36.5l0.1875-37.2 317.1375 0.15c21.6 0 39.1125-16.4625 39.1125-36.775C923.375 676.95 905.875 660.4875 884.275 660.4875z"  horiz-adv-x="1024" />

    
    <glyph glyph-name="yonghutouxiang" unicode="&#59473;" d="M959.68-25.024c-15.232 181.696-139.648 331.968-307.84 386.624 70.464 45.632 117.248 124.48 117.248 214.464C769.152 717.376 654.208 832 512.512 832 370.752 832 255.808 717.376 255.808 576.064c0-89.984 46.784-168.832 117.248-214.528-168.192-54.592-292.544-204.864-307.84-386.56-0.192-3.456-0.64-5.44 0-10.176C66.496-51.2 80.64-64 96.704-64c17.92 0 32.064 14.656 32.064 32 16.704 197.76 182.272 351.936 383.744 351.936 201.408 0 366.976-154.176 383.68-351.936 0-17.344 14.144-32 32.064-32 16.064 0 30.208 12.8 31.424 28.8C960.32-30.464 959.936-28.416 959.68-25.024zM320 576.064C320 682.048 406.208 768 512.512 768s192.448-85.952 192.448-191.936c0-106.048-86.144-192-192.448-192S320 470.016 320 576.064z"  horiz-adv-x="1024" />

    
    <glyph glyph-name="tuichu" unicode="&#58962;" d="M496.32-43.392c-55.488 0-109.376 10.848-160.064 32.352-48.992 20.672-92.928 50.304-130.688 88.064-37.76 37.76-67.392 81.76-88.128 130.72C96 258.432 85.12 312.288 85.12 367.808c0 66.432 16.288 132.384 47.072 190.816 29.76 56.448 72.992 106.016 125.056 143.328 14.464 10.368 34.56 7.008 44.896-7.424 10.336-14.432 7.04-34.496-7.424-44.8C250.72 618.112 214.208 576.32 189.12 528.672c-26.336-49.952-39.68-104.064-39.68-160.864 0-92.672 36.096-179.808 101.632-245.312 65.504-65.536 152.608-101.632 245.248-101.632 92.608 0 179.744 36.096 245.28 101.632 65.536 65.504 101.6 152.64 101.6 245.312 0 56.736-13.312 110.944-39.68 160.864-25.088 47.616-61.632 89.44-105.632 120.992-14.432 10.304-17.792 30.368-7.424 44.8 10.368 14.432 30.432 17.824 44.864 7.424 52.096-37.312 95.392-86.88 125.12-143.328 30.816-58.432 47.104-124.384 47.104-190.816 0-55.52-10.88-109.376-32.352-160.096-20.704-48.96-50.368-92.96-88.128-130.72-37.76-37.76-81.696-67.36-130.688-88.128C605.664-32.576 551.808-43.392 496.32-43.392L496.32-43.392zM505.984 402.816c-17.76 0-32.16 14.336-32.16 32.128L473.824 815.808c0 17.728 14.4 32.16 32.16 32.16s32.192-14.432 32.192-32.16l0-380.864C538.176 417.152 523.744 402.816 505.984 402.816L505.984 402.816zM505.984 402.816"  horiz-adv-x="1024" />

    
    <glyph glyph-name="yiyuan" unicode="&#59105;" d="M527.57504 824.08448 24.38144 478.24384 24.38144 384l94.24384 0 0-440.0896 786.75456 0L905.37984 384l94.23872 0L999.61856 478.24384 527.57504 824.08448zM752.3072 235.82208l-174.67392 0 0-174.67392L446.05952 61.14816l0 174.67392L272.52224 235.82208l0 130.432 174.67392 0L447.19616 540.92288l130.43712 0 0-174.67392 174.67392 0L752.3072 235.82208z"  horiz-adv-x="1025" />

    
    <glyph glyph-name="dingdan" unicode="&#58885;" d="M706.066 423.756l-385.282 0c-11.817 0-21.406-10.05-21.406-22.441l0-11.176c0-12.402 9.589-22.452 21.406-22.452l385.282 0c11.817 0 21.406 10.061 21.406 22.452l0 11.176c0.011 12.391-9.589 22.441-21.406 22.441zM504.208 221.538l-184.346 0c-11.311 0-20.483-10.095-20.483-22.542l0-11.344c0-12.436 9.172-22.531 20.483-22.531l184.346 0c11.311 0 20.483 10.084 20.483 22.531l0 11.344c0 12.447-9.172 22.542-20.483 22.542zM896.456 896l-766.061 0c-24.895 0-45.062-20.888-45.062-46.661l0-929.722c0-25.761 20.168-46.661 45.062-46.661l545.307 0c8.306 1.733 23.004 6.798 38.479 21.811l204.615 205.201c0 0 17.759 17.118 22.734 45.603l0 703.769c-0.011 25.772-20.19 46.661-45.074 46.661zM885.022 106.98c-0.034 0.574-0.113 1.137-0.169 1.699l0.169 0.169 0-1.868zM885.022 153.989l-174.96 0c-40.178 0-50.093-12.076-50.093-50.42l0-115.582-0.023-0.023 0-58.939-493.335 0c-13.685 0-24.771 11.479-24.771 25.604l0 859.675c0 14.158 11.086 25.615 24.771 25.615l693.64 0c13.685 0 24.771-11.457 24.771-25.615l0-660.316zM706.066 637.566l-385.282 0c-11.817 0-21.406-10.084-21.406-22.531l0-11.344c0-12.436 9.589-22.531 21.406-22.531l385.282 0c11.817 0 21.406 10.084 21.406 22.531l0 11.344c0.011 12.436-9.589 22.531-21.406 22.531z"  horiz-adv-x="1024" />

    
    <glyph glyph-name="fangxingxuanzhong" unicode="&#58953;" d="M726.976697 502.815858c-12.54369 12.447359-32.831716 12.320065-45.248112-0.25631L448.447252 266.751243l-103.26354 106.112189c-12.352748 12.703669-32.60809 12.927295-45.248112 0.639914-12.672705-12.320065-12.959978-32.60809-0.639914-45.248112l126.016611-129.503454c0.063647-0.096331 0.192662-0.096331 0.25631-0.192662 0.063647-0.063647 0.096331-0.192662 0.159978-0.25631 2.016073-1.983389 4.512082-3.19957 6.880796-4.544765 1.247144-0.672598 2.239699-1.792447 3.519527-2.303346 3.872168-1.599785 8.000645-2.399677 12.096439-2.399677 4.06483 0 8.12794 0.799892 11.967424 2.33603 1.247144 0.512619 2.208735 1.536138 3.392232 2.176052 2.399677 1.343475 4.895686 2.528692 6.944443 4.544765 0.063647 0.063647 0.096331 0.192662 0.192662 0.25631 0.063647 0.096331 0.159978 0.127295 0.25631 0.192662l256.223626 259.008628C739.647682 470.111437 739.520387 490.368499 726.976697 502.815858zM832-32.00086l-640 0c-52.9288 0-96.00086 43.07206-96.00086 95.99914l0 640c0 52.9288 43.07206 96.00086 96.00086 96.00086l640 0c52.92708 0 95.99914-43.07206 95.99914-96.00086l0-640C928.00086 11.0712 884.9288-32.00086 832-32.00086zM192 735.99914c-17.632039 0-32.00086-14.368821-32.00086-32.00086l0-640c0-17.664722 14.368821-31.99914 32.00086-31.99914l640 0c17.664722 0 31.99914 14.336138 31.99914 31.99914l0 640c0 17.632039-14.336138 32.00086-31.99914 32.00086L192 735.99914z"  horiz-adv-x="1024" />

    
    <glyph glyph-name="chaxun" unicode="&#58906;" d="M933.602 64.53 721.175 278.738c-2.472 2.479-5.204 4.372-7.813 6.435 35.884 55.518 56.836 121.647 56.836 192.878 0 195.694-157.298 354.31-351.461 354.31-194.054 0-351.461-158.616-351.461-354.31 0-195.722 157.407-354.302 351.461-354.302 70.631 0 136.303 21.179 191.459 57.361 2.009-2.692 3.852-5.369 6.283-7.827l212.454-214.235c14.506-14.579 33.396-21.849 52.314-21.849 18.932 0 37.836 7.268 52.328 21.814C962.436-11.824 962.436 35.39 933.602 64.53M418.737 235.63c-132.562 0-240.468 108.767-240.468 242.421 0 133.634 107.907 242.428 240.468 242.428 132.561 0 240.467-108.794 240.467-242.428C659.204 344.398 551.298 235.63 418.737 235.63"  horiz-adv-x="1024" />

    
    <glyph glyph-name="certificatezhengjian" unicode="&#59168;" d="M950.8864 749.6704c21.2992 0 38.8096-6.8608 52.5312-20.5824C1017.1392 715.4688 1024 697.9584 1024 676.5568l0-585.1136c0-21.4016-6.8608-38.8096-20.5824-52.5312C989.696 25.1904 972.1856 18.3296 950.8864 18.3296L73.1136 18.3296c-21.2992 0-38.8096 6.8608-52.5312 20.5824C6.8608 52.5312 0 70.0416 0 91.4432L0 676.5568c0 21.2992 6.8608 38.912 20.5824 52.5312 13.7216 13.7216 31.232 20.5824 52.5312 20.5824l365.6704 0 0 128C438.8864 889.856 444.928 896 457.1136 896l109.6704 0c12.1856 0 18.3296-6.144 18.3296-18.3296l0-128L950.8864 749.6704zM987.4432 676.5568c0 24.3712-12.1856 36.5568-36.5568 36.5568L585.1136 713.1136l0-54.8864c0-12.288-6.144-18.3296-18.3296-18.3296L457.1136 639.8976c-12.1856 0-18.3296 6.0416-18.3296 18.3296L438.784 713.1136 73.1136 713.1136c-24.3712 0-36.5568-12.288-36.5568-36.5568l0-585.1136c0-24.3712 12.1856-36.5568 36.5568-36.5568l877.6704 0c24.3712 0 36.5568 12.1856 36.5568 36.5568L987.3408 676.5568zM438.8864 219.4432c0 35.0208-12.5952 65.1264-37.6832 90.3168S345.9072 347.4432 310.8864 347.4432 245.76 334.848 220.5696 309.76 182.8864 254.464 182.8864 219.4432c0-12.288-6.144-18.3296-18.3296-18.3296S146.3296 207.1552 146.3296 219.4432c0 45.6704 15.9744 84.5824 48.0256 116.5312C226.304 368.0256 265.1136 384 310.8864 384c45.6704 0 84.5824-15.9744 116.5312-48.0256 31.9488-31.9488 48.0256-70.8608 48.0256-116.5312 0-12.288-6.144-18.3296-18.3296-18.3296S438.8864 207.1552 438.8864 219.4432zM374.8864 411.4432C356.5568 393.1136 335.2576 384 310.8864 384S265.1136 393.1136 246.8864 411.4432 219.4432 451.072 219.4432 475.4432c0 24.3712 9.1136 45.6704 27.4432 64s39.6288 27.4432 64 27.4432 45.6704-9.1136 64-27.4432S402.3296 499.712 402.3296 475.4432C402.3296 451.072 393.1136 429.6704 374.8864 411.4432zM349.696 514.2528C339.0464 524.9024 326.144 530.3296 310.8864 530.3296c-15.2576 0-28.16-5.4272-38.8096-15.9744C261.3248 503.6032 256 490.5984 256 475.4432c0-15.2576 5.3248-28.2624 15.9744-38.8096C282.624 425.8816 295.6288 420.5568 310.8864 420.5568c15.2576 0 28.16 5.3248 38.8096 15.9744 10.6496 10.6496 15.9744 23.6544 15.9744 38.8096C365.6704 490.5984 360.3456 503.6032 349.696 514.2528zM475.4432 676.5568l73.1136 0L548.5568 859.4432 475.4432 859.4432 475.4432 676.5568zM859.4432 530.3296l-256 0c-12.1856 0-18.3296 6.0416-18.3296 18.3296 0 12.1856 6.144 18.3296 18.3296 18.3296l256 0c12.1856 0 18.3296-6.144 18.3296-18.3296C877.6704 536.3712 871.6288 530.3296 859.4432 530.3296zM859.4432 420.5568l-256 0c-12.1856 0-18.3296 6.0416-18.3296 18.3296 0 12.1856 6.144 18.3296 18.3296 18.3296l256 0c12.1856 0 18.3296-6.144 18.3296-18.3296C877.6704 426.5984 871.6288 420.5568 859.4432 420.5568zM859.4432 310.8864l-256 0c-12.1856 0-18.3296 6.0416-18.3296 18.3296 0 12.1856 6.144 18.3296 18.3296 18.3296l256 0c12.1856 0 18.3296-6.144 18.3296-18.3296C877.6704 316.928 871.6288 310.8864 859.4432 310.8864zM859.4432 201.1136l-256 0c-12.1856 0-18.3296 6.0416-18.3296 18.3296 0 12.1856 6.144 18.3296 18.3296 18.3296l256 0c12.1856 0 18.3296-6.144 18.3296-18.3296C877.6704 207.1552 871.6288 201.1136 859.4432 201.1136z"  horiz-adv-x="1024" />

    
    <glyph glyph-name="tongji" unicode="&#58935;" d="M331.840623 102.515245 331.840623 508.549022c0 16.191531-12.457456 28.645338-27.399836 28.645338L222.235197 537.19436c-14.94238 0-27.399836-13.698094-27.399836-28.645338L194.835361 102.515245 331.840623 102.515245 331.840623 102.515245zM506.210956 102.515245 506.210956 682.918139c0 16.192747-12.453808 29.89449-27.401052 29.89449l-82.20559 0c-14.94238 0-27.399836-13.701743-27.399836-29.89449L369.204478 102.515245 506.210956 102.515245 506.210956 102.515245zM680.580073 102.515245 680.580073 359.089952c0 16.191531-12.452591 29.889625-27.399836 29.889625L570.979512 388.979577c-14.947245 0-27.405918-13.698094-27.405918-29.889625L543.573595 102.515245 680.580073 102.515245 680.580073 102.515245zM854.94919 102.515245 854.94919 508.549022c0 16.191531-12.452591 28.645338-27.399836 28.645338l-82.200725 0c-14.947245 0-27.399836-13.698094-27.399836-28.645338L717.948794 102.515245 854.94919 102.515245 854.94919 102.515245zM879.860454 65.15139"  horiz-adv-x="1024" />

    
    <glyph glyph-name="leibie" unicode="&#58890;" d="M881.584843 888.345104 142.421977 888.345104C66.196947 888.345104 3.827448 825.975606 3.827448 749.750575l0-739.161161c0-76.221621 62.369499-138.58771 138.594529-138.58771l739.161161 0c76.221621 0 138.58771 62.366089 138.58771 138.58771L1020.170847 749.753985C1020.172552 825.979015 957.806463 888.345104 881.584843 888.345104L881.584843 888.345104zM973.977217 10.591119c0-24.482027-9.700748-47.579695-27.257566-65.139923-17.556819-17.553409-40.654486-27.257566-65.139923-27.257566L142.421977-81.80637c-24.490552 0-47.586514 9.700748-65.139923 27.257566-17.556819 17.556819-27.257566 40.654486-27.257566 65.139923L50.024488 749.753985c0 24.485437 9.697338 47.586514 27.257566 65.139923 17.553409 17.556819 40.651076 27.257566 65.139923 27.257566l739.161161 0c24.482027 0 47.579695-9.697338 65.139923-27.257566 17.553409-17.553409 27.257566-40.651076 27.257566-65.139923l0-739.161161L973.977217 10.592824zM358.090565 653.788189l444.626689 0c18.84741 0 34.204938-15.355823 34.204938-34.201528 0-18.84741-15.268874-34.204938-34.204938-34.204938L358.090565 585.381723c-18.84741 0-34.196414 15.355823-34.196414 34.204938C323.892446 638.435776 339.24145 653.788189 358.090565 653.788189L358.090565 653.788189zM358.090565 175.045216l444.626689 0c18.84741 0 34.204938-15.355823 34.204938-34.285067 0-18.930949-15.268874-34.199824-34.204938-34.199824L358.090565 106.560325c-18.84741 0-34.196414 15.268874-34.196414 34.199824C323.892446 159.687688 339.24145 175.045216 358.090565 175.045216L358.090565 175.045216zM358.090565 414.374081l444.626689 0c18.84741 0 34.204938-15.268874 34.204938-34.204938 0-18.92413-15.268874-34.198119-34.204938-34.198119L358.090565 345.971024c-18.84741 0-34.196414 15.268874-34.196414 34.198119C323.892446 399.103501 339.24145 414.374081 358.090565 414.374081L358.090565 414.374081zM221.282746 653.788189c18.84741 0 34.204938-15.355823 34.204938-34.201528 0-18.84741-15.268874-34.204938-34.204938-34.204938-18.927539 0-34.201528 15.355823-34.201528 34.204938C187.079513 638.435776 202.435336 653.788189 221.282746 653.788189L221.282746 653.788189zM221.282746 175.045216c18.84741 0 34.204938-15.355823 34.204938-34.285067 0-18.930949-15.268874-34.199824-34.204938-34.199824-18.927539 0-34.201528 15.268874-34.201528 34.199824C187.079513 159.687688 202.435336 175.045216 221.282746 175.045216L221.282746 175.045216zM221.282746 414.374081c18.84741 0 34.204938-15.268874 34.204938-34.204938 0-18.92413-15.355823-34.198119-34.204938-34.198119s-34.201528 15.349004-34.201528 34.198119C187.079513 399.023372 202.435336 414.374081 221.282746 414.374081L221.282746 414.374081z"  horiz-adv-x="1024" />

    
    <glyph glyph-name="weixuanzhongkuang" unicode="&#58976;" d="M865.777931 824.368566 158.222069 824.368566c-51.586912 0-93.406366-41.819454-93.406366-93.406366L64.815703 23.406339c0-51.586912 41.819454-93.406366 93.406366-93.406366l707.555861 0c51.586912 0 93.406366 41.819454 93.406366 93.406366L959.184297 730.9622C959.184297 782.549112 917.364843 824.368566 865.777931 824.368566zM897.785925 73.261816c0-45.212738-36.651758-81.864496-81.864496-81.864496l-607.843882 0c-45.212738 0-81.864496 36.651758-81.864496 81.864496L126.213052 681.105698c0 45.212738 36.651758 81.864496 81.864496 81.864496l607.843882 0c45.212738 0 81.864496-36.651758 81.864496-81.864496L897.785925 73.261816z"  horiz-adv-x="1024" />

    
    <glyph glyph-name="weixin" unicode="&#58921;" d="M506.942 550.079c25.259 0 42.134 16.916 42.134 42.107 0 25.477-16.848 41.956-42.134 41.956-25.299 0-50.668-16.48-50.668-41.956 0.028-25.204 25.409-42.107 50.668-42.107l0 0zM506.942 550.079zM271.257 634.143c-25.259 0-50.79-16.48-50.79-41.956 0-25.19 25.532-42.107 50.79-42.107 25.163 0 42.012 16.916 42.012 42.107-0.014 25.477-16.834 41.956-42.012 41.956l0 0zM271.257 634.143zM1010.654 280.508c0 133.202-123.563 246.702-275.237 258.512 0.205 1.652 0.301 3.373-0.068 5.092-30.406 141.79-182.886 248.695-354.7 248.695-194.15 0-352.119-135.387-352.119-301.793 0-89.279 45.574-169.725 131.946-233.158l-30.106-90.508c-1.939-5.885-0.177-12.37 4.506-16.452 2.853-2.458 6.445-3.741 10.076-3.741 2.335 0 4.697 0.546 6.867 1.625l113.036 56.565 13.926-2.827c34.802-7.154 64.853-13.353 101.868-13.353 10.895 0 40.878 3.987 43.404 7.182 40.755-101.99 153.094-175.61 285.273-175.61 33.86 0 68.13 8.164 98.891 15.866l87.136-47.636c2.307-1.257 4.847-1.911 7.359-1.911 3.441 0 6.881 1.161 9.639 3.413 4.847 3.932 6.841 10.404 5.038 16.33l-22.255 74.001c74.602 58.955 115.521 129.488 115.521 199.708l0 0zM409.798 230.25c-9.626-0.833-19.388-1.243-29.082-1.243-32.686 0-60.334 5.652-92.31 12.26l-18.582 3.755c-3.195 0.683-6.567 0.245-9.503-1.269l-81.687-40.892 21.231 63.775c2.076 6.24-0.205 13.053-5.57 16.821-82.07 57.207-123.659 126.894-123.659 207.093 0 144.179 139.087 261.516 310.067 261.516 151.142 0 284.959-91.955 312.579-214.261-158.475-2.076-286.706-113.487-286.706-250.32 0-19.893 3.018-39.171 8.11-57.767-1.542 0.382-3.168 0.683-4.887 0.532l0 0zM860.371 107.301c-4.875-3.673-6.935-10.007-5.188-15.852l13.804-45.903-56.647 30.993c-2.157 1.188-4.588 1.803-7.004 1.803-1.188 0-2.389-0.15-3.564-0.464-30.379-7.674-61.822-15.593-92.433-15.593-142.186 0-257.857 97.717-257.857 217.811 0 120.095 115.658 217.771 257.857 217.771 139.469 0 257.325-99.724 257.325-217.771 0-59.87-37.738-121.255-106.291-172.797l0 0zM868.181 98.822zM616.454 389.994c-16.848 0-33.696-16.971-33.696-33.792 0-16.944 16.848-33.669 33.696-33.669 25.313 0 42.038 16.725 42.038 33.669 0 16.848-16.725 33.792-42.038 33.792l0 0zM616.454 389.994zM801.58 389.994c-16.603 0-33.451-16.971-33.451-33.792 0-16.944 16.848-33.669 33.451-33.669 25.231 0 42.257 16.725 42.257 33.669 0 16.848-16.998 33.792-42.257 33.792l0 0zM801.58 389.994z"  horiz-adv-x="1024" />

    
    <glyph glyph-name="tongji1" unicode="&#59007;" d="M918.025138 33.582095l-811.443431 0c-23.205442 0-41.972623 18.789948-41.972623 41.971927l0 671.513994c0 23.180955 18.767181 41.959647 41.972623 41.959647 23.158368 0 41.972623-18.778692 41.972623-41.959647l0-531.617803 0-97.925287 769.470807 0c23.158368 0 41.973647-18.789948 41.973647-41.970904C959.997761 52.373067 941.182483 33.582095 918.025138 33.582095M820.072302 159.49583l-83.945247 0c-23.158368 0-41.972623 18.778692-41.972623 41.959647L694.154432 495.24157c0 23.193235 18.814255 41.970904 41.972623 41.970904l83.945247 0c23.206465 0 41.973647-18.778692 41.973647-41.970904l0-293.786093C862.044925 178.274522 843.278767 159.49583 820.072302 159.49583M582.242104 159.49583l-83.945247 0c-23.181905 0-41.973647 18.778692-41.973647 41.959647L456.32321 663.125185c0 23.180955 18.791742 41.970904 41.973647 41.970904l83.945247 0c23.180882 0 41.972623-18.789948 41.972623-41.970904l0-461.669708C624.214727 178.274522 605.424009 159.49583 582.242104 159.49583M344.411906 159.49583l-83.945247 0c-23.205442 0-41.972623 18.778692-41.972623 41.959647l0 83.941807c0 23.179932 18.767181 41.970904 41.972623 41.970904l83.945247 0c23.181905 0 41.973647-18.789948 41.973647-41.970904l0-83.941807C386.384529 178.274522 367.593811 159.49583 344.411906 159.49583"  horiz-adv-x="1024" />

    
    <glyph glyph-name="jibenziliao" unicode="&#58970;" d="M854.360296-127.377375 169.639704-127.377375c-59.450642 0-108.124224 45.314629-108.124224 100.667832L61.515481 560.66187c0 28.557143 23.4361 50.354066 54.082765 50.354066l180.194614 0c30.606366 0 54.041458 21.83823 54.041458 50.354066L349.834318 829.189685c0 28.516843 25.239497 50.355073 54.042466 50.355073l450.483512 0c59.450642 0 108.124224-45.314629 108.124224-100.709139l0-805.54617C962.484519-82.062745 913.80993-127.377375 854.360296-127.377375L854.360296-127.377375zM737.221102 510.348104 448.94458 510.348104c-14.422138 0-27.041886-11.758349-27.041886-25.19819 0-13.397526 12.618741-25.156883 27.041886-25.156883l288.276523 0c14.422138 0 27.041886 11.758349 27.041886 25.156883C764.262989 498.589754 751.644248 510.348104 737.221102 510.348104L737.221102 510.348104zM737.221102 342.52842 286.77789 342.52842c-14.422138 0-27.040879-11.759357-27.040879-25.19819 0-13.397526 12.618741-25.156883 27.040879-25.156883l450.443212 0c14.422138 0 27.041886 11.758349 27.041886 25.156883C764.262989 330.769063 751.644248 342.52842 737.221102 342.52842L737.221102 342.52842zM737.221102 174.707728 286.77789 174.707728c-14.422138 0-27.040879-11.759357-27.040879-25.19819 0-13.437826 12.618741-25.155876 27.040879-25.155876l450.443212 0c14.422138 0 27.041886 11.717043 27.041886 25.155876C764.262989 162.948371 751.644248 174.707728 737.221102 174.707728L737.221102 174.707728zM239.90569 659.689518 101.176108 659.689518c-19.830314 0-25.239497 11.758349-12.618741 25.156883L268.750973 857.706529c14.422138 13.438833 25.239497 8.399397 25.239497-10.037566l0-137.623364C293.989463 681.528755 270.553363 659.689518 239.90569 659.689518L239.90569 659.689518z"  horiz-adv-x="1024" />

    
    <glyph glyph-name="iconddsh" unicode="&#58944;" d="M721.156 368.036h-414.563c-7.748 0-14.018-6.27-14.018-14.018s6.27-14.019 14.018-14.019h414.564c7.748 0 14.018 6.271 14.018 14.019s-6.27 14.018-14.019 14.018zM525.991 182.92h-219.398c-7.748 0-14.018-6.27-14.018-14.018s6.27-14.018 14.018-14.018h219.398c7.748 0 14.018 6.27 14.018 14.018s-6.27 14.018-14.018 14.018zM798.369 833.61h-572.738c-51.146 0-92.764-41.618-92.764-92.764v-713.664c0-51.159 41.618-92.791 92.764-92.791h392.714c0.453 0 0.91 0.025 1.361 0.069 0.158 0.015 0.31 0.043 0.464 0.063 0.294 0.038 0.587 0.077 0.877 0.134 0.17 0.033 0.336 0.077 0.501 0.116 0.274 0.063 0.547 0.129 0.818 0.21 0.158 0.047 0.312 0.102 0.468 0.155 0.274 0.092 0.545 0.188 0.814 0.297 0.144 0.059 0.286 0.124 0.428 0.188 0.266 0.119 0.528 0.243 0.788 0.38 0.144 0.075 0.283 0.156 0.426 0.236 0.237 0.136 0.474 0.277 0.705 0.429 0.164 0.106 0.323 0.221 0.484 0.335 0.188 0.134 0.374 0.27 0.556 0.414 0.206 0.164 0.405 0.335 0.602 0.51 0.078 0.070 0.162 0.13 0.237 0.202l258.771 240.041c0.046 0.042 0.084 0.089 0.128 0.132 0.224 0.213 0.438 0.435 0.648 0.661 0.116 0.126 0.232 0.249 0.344 0.378 0.174 0.203 0.336 0.413 0.499 0.627 0.124 0.163 0.25 0.323 0.365 0.49 0.13 0.187 0.25 0.38 0.369 0.573 0.126 0.201 0.254 0.401 0.367 0.607 0.096 0.173 0.182 0.353 0.272 0.531 0.116 0.232 0.234 0.464 0.338 0.702 0.072 0.166 0.134 0.337 0.197 0.506 0.102 0.259 0.202 0.518 0.286 0.781 0.052 0.158 0.092 0.319 0.136 0.478 0.082 0.286 0.16 0.572 0.222 0.862 0.030 0.144 0.054 0.291 0.080 0.437 0.058 0.316 0.109 0.631 0.144 0.951 0.016 0.129 0.024 0.261 0.034 0.391 0.028 0.341 0.048 0.682 0.052 1.024 0 0.051 0.008 0.101 0.008 0.152l0 552.396c0.001 51.146-41.617 92.764-92.764 92.764zM632.363-19.466v129.172c0 35.69 29.022 64.726 64.701 64.726h144.328l-209.029-193.898zM863.096 202.469h-166.033c-51.147 0-92.737-41.618-92.737-92.763v-147.278l-378.695-0c-35.704 0-64.727 29.051-64.727 64.754v713.664c0 35.69 29.023 64.726 64.727 64.726h572.738c35.704 0 64.728-29.036 64.728-64.726v-538.377zM708.069 729.482l-178.821-178.834-87.616 87.657c-21.851 21.904-57.389 21.892-79.293 0.014-21.904-21.891-21.904-57.402 0-79.306l127.262-127.319c10.514-10.513 24.778-16.428 39.647-16.428s29.133 5.914 39.647 16.428l218.466 218.494c21.905 21.904 21.905 57.403 0 79.293-21.903 21.904-57.388 21.904-79.292 0z"  horiz-adv-x="1024" />

    
    <glyph glyph-name="wuliu" unicode="&#58905;" d="M870.411392 0c0-70.702282 57.299345-128 128.001627-128s128.001627 57.297718 128.001627 128c0 70.703909-57.297718 128.001627-128.001627 128.001627C927.710737 128.003255 870.411392 70.705537 870.411392 0L870.411392 0zM153.603255 0c0-70.702282 57.297718-128 128-128 70.703909 0 128.001627 57.297718 128.001627 128 0 70.703909-57.297718 128.001627-128.001627 128.001627C210.900973 128.003255 153.603255 70.705537 153.603255 0L153.603255 0zM39.199847 436.205708c0 0-39.19822-54.897362-39.199847-103.399199 0-48.503464 0-256.003255 0-256.003255 0-28.202149 22.999479-51.201627 51.2-51.201627l50.898938 0c12.555082 88.204539 87.854656 156.499956 179.504316 156.499956 91.604094 0 166.905295-68.249851 179.505944-156.44788l357.799504-0.052076c12.553455 88.204539 87.854656 156.499956 179.504316 156.499956s166.949234-68.295417 179.504316-156.499956l102.100566 0c28.200521 0 51.2 22.999479 51.2 51.201627l0 768.009764c0 28.200521-22.999479 51.2-51.2 51.2l-819.211392 0c-28.200521 0-51.2-22.999479-51.2-51.2l0-153.603255-179.203255 0c-37.60178 0-53.401818-22.999479-76.8-51.2L39.199847 436.205708 39.199847 436.205708zM358.404882 332.806509l-272.651147 0c0 12.799186 10.353264 29.450334 19.900985 43.499333l107.797953 200.404501c0 0 11.45336 12.099422 19.702447 12.099422l125.249762 0L358.404882 332.806509 358.404882 332.806509zM1060.068807 850.333024 895.187947 569.834747l129.918657 0 0-61.979633-151.373772 0 0-85.420126 151.373772 0 0-62.773784-151.373772 0L873.732833 235.304863 795.86203 235.304863 795.86203 359.661204 638.925942 359.661204 638.925942 422.434988l156.936088 0 0 85.420126L638.925942 507.855114l0 61.979633 133.891043 0L609.526057 850.333024l87.804208 0c76.2825-139.323171 122.629712-227.656271 139.056284-265.002555l1.589931 0c5.562316 15.359024 20.789524 46.347213 45.689759 92.969449l93.366525 172.033107L1060.068807 850.333024z"  horiz-adv-x="1332" />

    
    <glyph glyph-name="Password" unicode="&#58924;" d="M916.211-128h-808.421c-29.777 0-53.895 24.145-53.895 53.895v485.053c0 29.777 24.118 53.895 53.895 53.895h80.842v107.789c0 178.607 144.788 323.368 323.368 323.368s323.368-144.761 323.368-323.368v-107.789h80.842c29.777 0 53.895-24.118 53.895-53.895v-485.053c0-29.75-24.118-53.895-53.895-53.895zM781.474 572.632c0 148.83-120.643 269.474-269.474 269.474-148.83 0-269.474-120.643-269.474-269.474v-107.789h538.947v107.789zM916.211 410.947h-808.421v-485.053h808.421v485.053zM512 303.158c14.875 0 26.947-12.072 26.947-26.947v-215.579c0-14.875-12.072-26.947-26.947-26.947s-26.947 12.072-26.947 26.947v215.579c0 14.875 12.072 26.947 26.947 26.947z"  horiz-adv-x="1024" />

    
    <glyph glyph-name="shenhebohui" unicode="&#58913;" d="M513.66604 896C230.903512 896 1.673695 666.775286 1.673695 384.007654 1.673695 101.240023 230.903512-128 513.66604-128 796.428569-128 1025.648181 101.245125 1025.648181 384.007654 1025.648181 666.770183 796.428569 896 513.66604 896zM810.012029 45.201872c-28.651814 151.372404-172.987557 266.229692-332.580455 266.229692l0-145.080742c0.847053-7.011147-1.57164-11.848533-7.062175-17.170677-10.567748-10.639186-27.034249-6.28656-36.004844 1.449175L194.15367 413.950458c-5.102727 5.077214-7.276489 11.848533-6.939709 18.374921-0.33678 6.771319 1.836982 13.297707 6.939709 18.374921l241.537595 265.020346c9.577819 9.42984 25.100315 9.42984 34.673032 0 5.510945-5.561973 7.470393-12.818051 6.648854-20.069026l0-142.667152c200.526976 0 363.120278-162.491247 363.120278-362.951888C840.138531 138.535856 829.305441 89.692551 810.012029 45.201872z"  horiz-adv-x="1026" />

    
    <glyph glyph-name="shenhebohui1" unicode="&#58926;" d="M656.203348 761.649941l190.99454 0 0-63.99516L656.203348 697.654781 656.203348 761.649941zM707.399276 634.871548l141.16853 0 0-63.99616L707.399276 570.875387 707.399276 634.871548zM755.183409 497.685779l87.095774 0 0-63.99616-87.095774 0L755.183409 497.685779zM187.298482 232.976661l193.218407 0 0-63.99616-193.218407 0L187.298482 232.976661zM189.858329 95.790893l112.694238 0 0-63.99616L189.858329 31.794732 189.858329 95.790893zM898.6738 895.99488 130.723877 895.99488C95.380997 895.99488 66.728716 867.342599 66.728716 831.99872l0-895.940244c0-35.342879 28.652281-63.99516 63.99516-63.99516l299.383037 0.32798 0 63.99516-299.383037-0.32798L130.723877 831.99872l767.950923 0 0-501.728896 63.99516 0L962.66996 831.99872C962.66796 867.342599 934.011679 895.99488 898.6738 895.99488L898.6738 895.99488zM687.052537 191.274284l0 74.916465c0 3.256125 0 13.029618-6.512249 22.803112-6.512249 9.773494-19.541867 9.773494-35.83273 3.256125l-3.256125 0L498.125632 135.899686c-3.256125-3.256125-16.285743-19.541867-16.285743-35.83273 0-19.541867 16.285743-35.83273 19.541867-35.83273l143.320681-162.867668c3.256125-3.256125 13.029618-13.029618 22.803112-13.029618s16.285743 6.512249 19.541867 13.029618c3.256125 6.512249 3.256125 13.029618 3.256125 22.803112l0 94.463452c42.344979 0 159.606424-6.512249 231.271884-133.552307 4.9917-11.022699 13.029618-13.029618 19.541867-13.029618l6.512249 0 4.873948 1.433514c9.773494 3.256125 11.411795 14.852229 11.411795 18.108353C960.66428-59.539468 941.122413 178.244665 687.052537 191.274284zM700.082155 51.209727c-16.285743 0-26.059236 0-26.059236 0l-16.285743-3.256125 0-110.749195-130.291063 149.83805c-3.256125 3.256125-9.773494 9.773494-9.773494 13.029618 0 3.256125 3.256125 9.773494 6.512249 13.029618l127.034938 136.808431 0-94.463452 16.285743 0c182.409535 0 237.784133-123.778813 254.069876-208.468772C846.65896 41.436234 745.683259 51.209727 700.082155 51.209727zM402.904546 783.783613c-128.761274 0-233.151011-104.399736-233.151011-233.16201 0-128.751275 104.389737-233.151011 233.151011-233.151011s233.151011 104.399736 233.151011 233.151011C636.056557 679.383877 531.66582 783.783613 402.904546 783.783613zM402.904546 375.764094c-96.410215 0-174.868508 78.437294-174.868508 174.857509 0 96.410215 78.458293 174.868508 174.868508 174.868508 96.432214 0 174.869508-78.459292 174.869508-174.868508C577.774054 454.201388 499.33676 375.764094 402.904546 375.764094zM432.050797 562.691878 432.050797 667.208607c0 16.107034-13.038218 29.136252-29.146251 29.136252-16.107034 0-29.146251-13.029218-29.146251-29.136252l0-116.680999c0.020999-8.021519 3.278803-15.284083 8.570486-20.533768l58.249505-58.272504c5.692658-5.691659 13.156211-8.527488 20.619763-8.527488 7.452553 0 14.916105 2.83683 20.607764 8.527488 11.374318 11.384317 11.374318 29.843209 0 41.226526L432.050797 562.691878z"  horiz-adv-x="1024" />

    
    <glyph glyph-name="riqixuanze" unicode="&#59367;" d="M343.242482 691.749106 679.999249 691.749106 679.999249 747.874381 343.242482 747.874381 343.242482 804.00068 287.116183 804.00068 287.116183 747.874381 287.116183 691.749106 287.116183 635.615645 343.242482 635.615645ZM455.495078 130.487146l112.252597 0 0-56.126298-112.252597 0 0 56.126298ZM230.989885 354.985176l112.252597 0 0-56.119135-112.252597 0 0 56.119135ZM455.495078 242.739742l112.252597 0 0-56.126298-112.252597 0 0 56.126298ZM230.989885 130.487146l112.252597 0 0-56.126298-112.252597 0 0 56.126298ZM230.989885 242.739742l112.252597 0 0-56.126298-112.252597 0 0 56.126298ZM679.999249 242.739742l112.252597 0 0-56.126298-112.252597 0 0 56.126298ZM679.999249 354.985176l112.252597 0 0-56.119135-112.252597 0 0 56.119135ZM455.495078 354.985176l112.252597 0 0-56.119135-112.252597 0 0 56.119135ZM455.495078 467.243913l112.252597 0 0-56.126298-112.252597 0 0 56.126298ZM792.251845 747.874381 792.251845 804.00068l-56.126298 0 0-56.126298 0-56.126298 0-56.133462 56.126298 0 0 56.133462 112.252597 0 0-112.252597L118.738311 579.495486 118.738311 691.749106l112.252597 0 0 56.126298L62.612013 747.875404l0-785.766131 898.017704 0 0 785.766131L792.251845 747.875404zM904.503419 18.235572 118.738311 18.235572 118.738311 523.370211l785.766131 0L904.504442 18.235572zM679.999249 467.243913l112.252597 0 0-56.126298-112.252597 0 0 56.126298Z"  horiz-adv-x="1024" />

    
    <glyph glyph-name="daifahuo" unicode="&#58971;" d="M763.246882 202.529214c-47.547529 0-86.080383-39.030547-86.080383-87.193293 0-48.161725 38.531832-87.192271 86.080383-87.192271 47.546507 0 86.079361 39.030547 86.079361 87.192271C849.325222 163.499689 810.793389 202.530236 763.246882 202.529214zM763.246882 70.639649c-24.369565 0-44.1158 20.001725-44.1158 44.69525 0 24.694547 19.747257 44.696271 44.116822 44.696271 24.367521 0 44.113756-20.000703 44.114778-44.697293C807.362683 90.642395 787.615425 70.639649 763.246882 70.639649zM958.635689 356.081182c-2.003034 13.987513-6.859369 28.288766-13.667641 42.599218-4.94218 10.387162-9.891513 18.788663-13.561357 24.267369l-72.831745 135.047409-2.088878 3.162954c-1.174228 1.473661-5.110802 6.463872-5.578858 7.054563-2.27283 2.865565-4.035705 5.037222-5.796535 7.117924-15.81988 18.686467-31.206451 27.869764-54.116663 27.869764l-93.960687 0 0 81.245509c0 30.43794-23.994507 55.411481-53.741605 55.411481L118.124838 739.857373C88.377741 739.857373 64.383234 714.88281 64.383234 684.44487l0-512.466012c0-30.438962 23.993485-55.414547 53.741605-55.414547l58.479393 0 18.214323 0 2.505836 18.324695c6.605924 48.30582 50.707417 86.101844 101.326946 86.101844 50.619529 0 94.721022-37.796024 101.326946-86.100822l2.505836-18.328782 18.217389 0.003066 215.426299 0.034747 18.20206 0.003066 2.51299 18.311409c6.632495 48.31604 50.709461 86.084471 101.325924 86.077317 50.627705-0.007154 94.723066-37.797046 101.32899-86.101844l2.505836-18.324695 18.214323 0 39.602842 0c16.903154 0 29.721549 8.487345 35.61517 23.321038 3.482826 8.765317 4.178778 16.725333 4.178778 32.091465L959.614723 342.79984C959.616766 347.149285 959.279521 351.577421 958.635689 356.081182zM758.174914 263.488894c-64.832894 0.009198-122.008271-44.004407-138.955369-104.394858l-181.611816-0.028615c-16.928703 60.388407-74.125541 104.423473-138.956391 104.423473-64.832894 0-122.028711-44.036088-138.957413-104.426539l-41.569086 0c-6.408687 0-11.902723 5.718866-11.902723 12.916503L106.222116 684.44487c0 7.195593 5.494036 12.914459 11.902723 12.914459l525.16586 0c6.408687 0 11.902723-5.718866 11.902723-12.914459l0-102.49402 0-21.248511 20.919441 0L790.994012 560.702339c8.891018 0 13.799473-2.929948 22.394124-13.081038 1.417453-1.673964 2.921772-3.527792 4.938092-6.069397 0.313741-0.395497 2.770523-3.509397 4.447553-5.627912l72.447489-134.336128 1.183425-1.939673c0.545725-0.796104 1.68214-2.556934 3.209964-5.111824 2.616208-4.374994 5.242635-9.220088 7.683066-14.348263 5.100583-10.720319 8.630419-21.114635 9.934435-30.222307 0.363816-2.541605 0.545725-4.93707 0.545725-7.165956l0-170.820982c0-6.569134-0.185996-10.807186-0.532439-13.436679-3.584 0.204391-12.113246 0.332136-20.085525 0.409804C880.271074 219.395577 823.051752 263.479697 758.174914 263.488894zM300.02689 202.529214c-46.358994 0-83.928144-38.046403-83.928144-84.995066 0.001022-46.947641 37.570172-84.994044 83.928144-84.994044 46.357972 0 83.928144 38.046403 83.928144 84.994044C383.956056 164.483832 346.384862 202.530236 300.02689 202.529214zM300.02689 75.037126c-23.182052 0-41.963561 19.020647-41.963561 42.498044 0 23.476375 18.781509 42.497022 41.964583 42.497022 23.182052 0 41.963561-19.019625 41.963561-42.498044C341.991473 94.057772 323.209964 75.037126 300.02689 75.037126zM777.850635 502.260758l-80.239904 0 0-166.127138 174.671713 0c0 8.305437-81.809629 158.275449-81.809629 158.275449S783.13517 502.260758 777.850635 502.260758zM169.293158 584.034619l64.481341 0c7.724966 0 13.988535 6.342259 13.988535 14.165333 0 7.824096-6.262547 14.165333-13.988535 14.165333l-64.481341 0c-7.724966 0-13.987513-6.342259-13.987513-14.165333C155.305645 590.376878 161.568192 584.034619 169.293158 584.034619zM309.173397 584.034619l286.754747 0c7.724966 0 13.988535 6.342259 13.988535 14.165333 0 7.824096-6.262547 14.165333-13.988535 14.165333L309.173397 612.365285c-7.724966 0-13.987513-6.342259-13.987513-14.165333C295.185884 590.376878 301.448431 584.034619 309.173397 584.034619zM169.293158 499.039553l426.634986 0c7.724966 0 13.988535 6.342259 13.988535 14.165333 0 7.823074-6.262547 14.165333-13.988535 14.165333L169.293158 527.37022c-7.724966 0-13.987513-6.342259-13.987513-14.165333C155.305645 505.381812 161.568192 499.039553 169.293158 499.039553zM169.293158 414.045509l426.634986 0c7.724966 0 13.988535 6.342259 13.988535 14.165333s-6.262547 14.165333-13.988535 14.165333L169.293158 442.376176c-7.724966 0-13.987513-6.342259-13.987513-14.165333S161.568192 414.045509 169.293158 414.045509zM597.464144 357.383154l-64.481341 0c-7.724966 0-13.987513-6.342259-13.987513-14.165333s6.262547-14.165333 13.987513-14.165333l64.481341 0c7.724966 0 13.988535 6.342259 13.988535 14.165333S605.18911 357.383154 597.464144 357.383154zM456.047904 357.383154 169.293158 357.383154c-7.724966 0-13.987513-6.342259-13.987513-14.165333s6.262547-14.165333 13.987513-14.165333L456.047904 329.052487c7.724966 0 13.988535 6.342259 13.988535 14.165333S463.77287 357.383154 456.047904 357.383154z"  horiz-adv-x="1024" />

    
    <glyph glyph-name="nitification" unicode="&#58910;" d="M482.112 828.8c0 12.8 12.8 25.6 25.6 25.6s25.6-12.8 25.6-25.6v-97.536c123.84-14.912 230.4-135.872 230.4-273.664v-153.6c0-19.2 6.4-38.4 12.8-51.2l64-102.4c12.8-19.2 12.8-38.4 0-57.6s-32-32-51.2-32h-154.624c0.64-2.112 1.024-4.224 1.024-6.4 0-76.8-57.6-140.8-128-140.8s-128 64-128 134.4c0.111 4.905 1.697 9.419 4.329 13.139l-151.529-0.339c-19.2 0-38.4 12.8-51.2 32-12.8 19.2-6.4 38.4 0 57.6l64 102.4c12.8 19.2 19.2 38.4 12.8 57.6v147.2c0 96 51.2 179.2 128 230.4 12.8 6.4 25.6 6.4 38.4-6.4 12.8-12.8 6.4-25.6-6.4-38.4-64-38.4-108.8-108.8-108.8-185.6l6.4-147.2c0-32-6.4-57.6-25.6-89.6l-64-102.4v-6.4l6.4-6.4h556.8s6.4 0 6.4 6.4v6.4l-64 102.4c-12.8 32-25.6 57.6-25.6 89.6v147.2c0 121.6-89.6 224-204.8 224-6.4 0-19.2 12.8-19.2 25.6v121.6zM585.536 60.8h-155.84c0.768-1.92 1.216-4.032 1.216-6.4 0-44.8 32-83.2 76.8-83.2s76.8 38.4 76.8 83.2c0 2.176 0.32 4.288 1.024 6.4z"  horiz-adv-x="1024" />

    
    <glyph glyph-name="4" unicode="&#58892;" d="M1023.954 34.018c0-89.475-72.539-162.017-162.007-162.017h-699.919c-89.468 0-162.007 72.544-162.007 162.017v699.964c0 89.475 72.539 162.018 162.007 162.018h699.92c89.468 0 162.007-72.545 162.007-162.018v-699.964zM544.617 460.921h54.614v-80.185h-54.614zM513.883 744.661c-200.222 0-362.549-162.33-362.549-362.549 0-51.861 10.912-101.177 30.526-145.766 0.463-0.864 0.904-1.727 1.377-2.572v-0.555c23.119-50.484 55.617-92.999 95.599-126.971l-62.498-37.542h115.215c41.235-24.447 89.846-41.204 141.773-46.973-37.488 4.268 0.776-2.151 40.545-2.151 150.249 0 279.155 91.411 334.154 221.632 18.265 43.341 28.383 90.937 28.383 140.899 0.001 200.218-162.318 362.548-362.525 362.548zM411.523 191.294h-66.547v180.888c-9.112-13.638-18.753-27.306-29.041-40.946-1.117 9.083-2.293 22.192-3.41 39.241-3.41 27.306-5.703 47.206-6.819 59.728 29.57 45.501 52.909 102.407 69.957 170.66l69.957-17.078c-10.229-31.863-21.575-60.874-34.097-87.034v-305.459zM720.391 317.597h-87.006c13.638-12.552 32.979-30.158 58.023-52.909 11.346-12.552 20.457-21.076 27.278-25.601l-52.909-46.090c-36.389 35.302-65.431 64.284-87.006 87.034l46.030 37.565h-117.692l52.849-35.86c-7.937-9.112-18.753-21.046-32.392-35.831-22.751-25.014-40.387-43.767-52.909-56.318l-52.909 46.090c17.048 13.638 41.504 38.652 73.366 75.071 3.41 3.41 5.703 5.703 6.819 6.849h-76.776v63.138h52.909v80.185h-44.385v63.138h44.385v75.103h66.547v-75.101h54.614v75.101h66.547v-75.101h44.385v-63.138h-44.385v-80.185h54.614v-63.139z"  horiz-adv-x="1024" />

    
    <glyph glyph-name="jia" unicode="&#58900;" d="M512-128C229.238154-128 0 101.238154 0 384S229.238154 896 512 896s512-229.238154 512-512-229.238154-512-512-512z m236.307692 551.384615H551.384615V620.307692a39.384615 39.384615 0 1 1-78.76923 0v-196.923077H275.692308a39.384615 39.384615 0 1 1 0-78.76923h196.923077v-196.923077a39.384615 39.384615 0 1 1 78.76923 0V344.615385h196.923077a39.384615 39.384615 0 0 1 0 78.76923z"  horiz-adv-x="1024" />

    
    <glyph glyph-name="chakan" unicode="&#58943;" d="M607.839811 0.042898H214.69447A86.82497 86.82497 0 0 0 127.880338 86.929279V681.215219A86.839419 86.839419 0 0 0 214.69447 768.119662h594.28594a86.33729 86.33729 0 0 0 61.436749-25.456857c16.400473-16.400473 25.362934-38.208767 25.373771-61.411462L894.439878 288.178251v-0.10476a32.031496 32.031496 0 0 1 64.059379-0.101149L959.825022 681.110458v0.104761A150.775976 150.775976 0 0 1 808.98041 832.059831H214.69447A150.638703 150.638703 0 0 1 63.940169 681.215219v-594.28594a150.638703 150.638703 0 0 1 150.757914-150.82655h393.141728a31.970084 31.970084 0 0 1 0 63.940169zM950.544667-9.331381l-122.071536 122.071536a192.217875 192.217875 0 1 1-45.213286-45.213286l122.071536-122.071536a31.970084 31.970084 0 0 1 45.213286 45.213286z m-278.547941 105.302594a128.028448 128.028448 0 1 0 90.531332 37.497116 127.193975 127.193975 0 0 0-90.527719-37.497116zM768.004516 543.787205c17.653989 0 31.966472 14.402794 31.970084 32.056783s-14.308871 32.074845-31.966472 32.078457L256.002709 608.088618a32.020659 32.020659 0 0 1-31.970084-32.024271c0-17.657601 14.308871-32.092907 31.966472-32.092908L768.004516 543.787205zM448.000226 351.966698a31.96286 31.96286 0 1 1 0 63.940169h-192.001129a31.937573 31.937573 0 1 1 0-63.878758l192.001129-0.061411zM256.017159 224.08636a31.959247 31.959247 0 1 1 0-63.922107l127.999549-0.018062a31.941185 31.941185 0 1 1 0 63.878757z"  horiz-adv-x="1024" />

    
    <glyph glyph-name="yiyuan1" unicode="&#58972;" d="M512.796029-74.586145c-44.734264 0-86.786326 17.419924-118.419681 49.050083l-289.760894 289.760894c-65.296744 65.296744-65.296744 171.542618 0 236.836165L394.376348 790.821891c31.630158 31.633355 73.685417 49.050083 118.419681 49.050083s86.789523-17.419924 118.419681-49.050083l289.760894-289.760894c65.296744-65.296744 65.296744-171.542618 0-236.836165l-289.760894-289.760894c-31.630158-31.626961-73.685417-49.050083-118.419681-49.050083z m0 869.704674c-32.777846 0-63.592794-12.765234-86.770341-35.942781l-289.760895-289.760894c-47.84485-47.84485-47.84485-125.695832 0-173.543879l289.760895-289.760894c23.177547-23.177547 53.992495-35.94278 86.770341-35.942781s63.595991 12.765234 86.773538 35.942781l289.760894 289.760894c47.84485 47.84485 47.84485 125.695832 0 173.543879l-289.760894 289.760894c-23.177547 23.177547-53.995692 35.94278-86.773538 35.942781zM590.752509 117.768312h-151.654685a22.378321 22.378321 0 0 0-22.378321 22.378321v137.898411H278.821092a22.378321 22.378321 0 0 0-22.378321 22.378321V452.078049a22.378321 22.378321 0 0 0 22.378321 22.378321h137.901608V612.354781a22.378321 22.378321 0 0 0 22.378321 22.378321h151.654684a22.378321 22.378321 0 0 0 22.378321-22.378321v-137.898411h137.901608a22.378321 22.378321 0 0 0 22.378321-22.378321v-151.654684a22.378321 22.378321 0 0 0-22.378321-22.378321H613.134026v-137.898411a22.381518 22.381518 0 0 0-22.381517-22.378321z m-129.273167 44.756642h106.898042v137.898411a22.378321 22.378321 0 0 0 22.378321 22.378321h137.901608V429.699728H590.755705a22.378321 22.378321 0 0 0-22.378321 22.378321V589.97646h-106.898042v-137.898411a22.378321 22.378321 0 0 0-22.378321-22.378321H301.199413v-106.898042h137.901608a22.378321 22.378321 0 0 0 22.378321-22.378321v-137.898411z"  horiz-adv-x="1024" />

    
    <glyph glyph-name="icon-xinzeng" unicode="&#58931;" d="M892.95285 448.431451H576.43094V764.954385c0 35.815717-29.03529 64.849984-64.847937 64.849984-35.81674 0-64.851007-29.034267-64.851007-64.849984v-316.522934H130.208039c-35.815717 0-64.849984-29.036313-64.849984-64.849983s29.034267-64.84896 64.849984-64.848961h316.523957v-316.522933c0-35.81367 29.034267-64.849984 64.851007-64.849984 35.812647 0 64.847937 29.036313 64.847937 64.849984V318.733531h316.52191c35.815717 0 64.851007 29.034267 64.851007 64.84896s-29.03529 64.84896-64.851007 64.84896z"  horiz-adv-x="1024" />

    
    <glyph glyph-name="icon-bars" unicode="&#58887;" d="M85.333 810.667h853.333c47.128 0 85.333-38.205 85.333-85.333s-38.205-85.333-85.333-85.333h-853.333c-47.128 0-85.333 38.205-85.333 85.333s38.205 85.333 85.333 85.333zM85.333 469.333h853.333c47.128-0 85.333-38.205 85.333-85.333 0-47.128-38.205-85.333-85.333-85.333h-853.333c-47.128 0-85.333 38.205-85.333 85.333 0 47.128 38.205 85.333 85.333 85.333zM85.333 128h853.333c47.128 0 85.333-38.205 85.333-85.333s-38.205-85.333-85.333-85.333h-853.333c-47.128 0-85.333 38.205-85.333 85.333s38.205 85.333 85.333 85.333z"  horiz-adv-x="1228" />

    
    <glyph glyph-name="xiugaiziliao" unicode="&#58898;" d="M972.8 672c-153.6-147.2-307.2-307.2-454.4-460.8l-12.8-12.8c-64-102.4-172.8-115.2-275.2-147.2-19.2-6.4-51.2 32-44.8 51.2 19.2 64 32 128 51.2 185.6 6.4 12.8 12.8 19.2 19.2 25.6C396.8 448 544 588.8 684.8 723.2c32 32 64 70.4 96 108.8 44.8 51.2 102.4 51.2 147.2 6.4 32-25.6 128-89.6 44.8-166.4z m-230.4 12.8L326.4 268.8l70.4-70.4c140.8 134.4 281.6 275.2 416 409.6-25.6 25.6-51.2 51.2-70.4 76.8z m32 57.6c32-32 64-64 102.4-96 6.4 6.4 25.6 19.2 32 32 57.6 64 51.2 57.6-12.8 121.6l-6.4 6.4c-19.2 12.8-32 12.8-51.2 0l-64-64zM256 121.6c32 12.8 57.6 25.6 76.8 32-12.8 19.2-25.6 38.4-44.8 57.6-12.8-32-19.2-57.6-32-89.6zM460.8-102.4H185.6c-51.2 0-96 12.8-128 57.6-19.2 25.6-25.6 57.6-25.6 89.6V595.2c0 96 64 160 160 160h300.8c19.2 0 44.8 0 44.8-32-6.4-19.2-25.6-32-57.6-32H192c-70.4 0-108.8-38.4-108.8-108.8v-531.2c0-57.6 38.4-96 89.6-96h569.6c44.8 0 76.8 32 76.8 83.2V403.2v25.6c6.4 12.8 19.2 25.6 32 25.6s19.2-19.2 25.6-32V44.8c0-102.4-44.8-147.2-147.2-147.2H460.8z"  horiz-adv-x="1024" />

    
    <glyph glyph-name="shenhezhong" unicode="&#59010;" d="M511.999 605.106c73.151 0 138.03-35.38 178.474-89.955l28.299-7.58c-42.243 70.02-119.035 116.843-206.773 116.843-42.384 0-82.213-10.945-116.828-30.136l28.243-7.566c27.136 11.824 57.095 18.394 88.585 18.394z m145.788 12.561l15.494-12.56 4.774 18.822 17.348 10.136-17.348 10.137-4.774 18.824-15.494-12.561-20.298 1.5 7.768-17.9-7.768-17.899 20.298 1.501z m-268.834 42.121l-15.94 11.096-3.478-19.642-16.318-12.166 17.595-8.434 5.853-18.612 14.354 14.43 19.935 0.661-8.722 17.354 6.464 19.02-19.743-3.707z m149.227 27.136l-11.812 15.415-9.288-17.653-19.243-6.63 14.203-13.384-0.081-19.51 18.06 9.383 19.193-5.429-3.036 19.182 11.944 16.157-19.94 2.47z m215.99-121.207l-16.731 11.586-2.384-19.37-15.767-11.483 18.252-9 6.99-18.683 13.655 13.798 20.092-0.06-9.808 17.536 5.424 18.641-19.722-2.965zM971.55 419.85L132.399 644.702c-20.597 5.515-41.769-6.707-47.29-27.302L25.15 393.626c-5.514-20.595 6.708-41.767 27.304-47.288L891.6 121.49c20.602-5.52 41.773 6.701 47.293 27.298l59.954 223.772c5.521 20.602-6.7 41.773-27.297 47.29z m6.151-51.616l-54.96-205.122c-4.14-15.45-20.02-24.616-35.464-20.48l-820.5 219.853c-15.449 4.142-24.616 20.021-20.48 35.465l54.965 205.131c4.136 15.446 20.02 24.611 35.464 20.475l820.5-219.853c15.45-4.136 24.617-20.02 20.475-35.47zM512 730.596c160.823 0 296.101-109.253 335.727-257.58l21.364-5.723C831.04 629.288 685.61 749.9 512.004 749.9c-105.268 0-200.166-44.344-267.06-115.368l21.337-5.717C329.166 691.696 416.04 730.596 512 730.596z m88.591-551.117c-27.141-11.827-57.096-18.398-88.591-18.398-73.147 0-138.026 35.378-178.475 89.96l-28.297 7.58c42.241-70.02 119.035-116.844 206.772-116.844 42.388 0 82.217 10.94 116.834 30.132l-28.243 7.57zM393.46 139.393l-15.369 12.531-4.737-18.778-17.203-10.11 17.203-10.112 4.737-18.783 15.369 12.53 20.136-1.494-7.707 17.858 7.707 17.854-20.136-1.496z m118.479-59.459l11.718-15.383 9.212 17.616 19.086 6.61-14.086 13.354 0.081 19.465-17.915-9.363-19.036 5.418 3.012-19.136-11.845-16.12 19.773-2.46z m-244.04 121.344l15.742-12.702 3.717 19.106 16.415 10.323-17.424 10.237-5.596 19.081-14.49-12.778-19.874 1.47 8.47-18.136-6.687-18.172 19.726 1.571z m244.1-165.682c-160.816 0-296.094 109.252-335.727 257.576l-21.363 5.727c38.05-162 183.485-282.61 357.09-282.61 105.268 0 200.173 44.343 267.062 115.367l-21.339 5.718C694.837 74.49 607.96 35.596 512 35.596z m139.562 70.838l15.838-11.086 3.414 19.582 16.172 12.105-17.48 8.434-5.843 18.567-14.217-14.37-19.784-0.63 8.688-17.313-6.38-18.961 19.592 3.672z m0 0M366.98 451.87l-26.203-100.142-28.246 7.39 2.24 8.56-31.669 8.286-10.525-40.228-28.246 7.39 10.526 40.229-29.957 7.839-3.36-12.84-27.389 7.165 27.323 104.422 57.346-15.004 4.479 17.118 3.424-0.894c7.257-2.515 13.468-4.44 18.604-5.785 4.986-1.917 7.685-3.239 8.11-3.951 0.261-1.296-0.54-3.216-2.422-5.767-1.174-2.136-1.903-3.775-2.2-4.911l-0.896-3.424 59.06-15.453z m-152.874 90.298l78.742-20.604c0.1 9.72-0.398 15.95-1.512 18.685l0.448 1.712c12.28-1.999 23.558-4.335 33.83-7.022-1.425-12.431-2.078-19.576-1.95-21.438l74.464-19.483-11.422-43.652-29.101 7.614 5.15 19.688-127.531 33.369-4.927-18.83-27.389 7.166 11.198 42.795z m19.12-115.66l-3.582-13.694 31.669-8.286 3.582 13.695-31.669 8.286z m6.232 20.32l30.813-8.063 3.583 13.696-30.813 8.061-3.583-13.695z m52.827-35.77l-3.583-13.696 31.668-8.286 3.582 13.695-31.667 8.286z m8.958 34.235l-3.582-13.695 30.813-8.063 3.583 13.696-30.814 8.062zM392.978 376.48c18.643 17.67 33.806 37.18 45.49 58.514l-23.965 6.271 6.045 23.11 26.534-6.943 11.422 43.652 3.422-0.896c11.408-2.984 17.602-4.92 18.605-5.782 2.275-0.595 3.556-1.545 3.833-2.832-0.15-0.574-0.743-1.635-1.752-3.2-1.323-2.712-2.5-6.061-3.544-10.047l-7.167-27.39 21.398-5.6 4.031 15.407 49.644-12.988c-0.048 9.157-0.172 18.02-0.353 26.613l31.708-4.639c-0.653-7.144-1.688-16.936-3.11-29.365l46.22-12.094-5.822-22.254-57.347 15.005c-4.768-4.24-11.846-10.318-21.231-18.223-5.493-4.663-9.388-7.918-11.695-9.743 8.56-2.238 15.26-3.393 20.135-3.438 5.178 3.517 12.256 9.596 21.229 18.222 1.435 0.84 2.587 1.752 3.463 2.752 15.74-12.05 23.546-18.364 23.4-18.925-0.728-0.424-1.526-1.131-2.383-2.12-12.271-9.594-21.004-16.154-26.183-19.672-30.145-21.99-60.638-37.175-91.484-45.566-3.645 7.04-8.999 14.544-16.063 22.493 21.928 4.623 44.71 13.594 68.32 26.936-20.005 2.79-32.79 4.007-38.372 3.637-1.265 2.16-0.533 10.8 2.215 25.941-0.574 0.15 2.217 0.335 8.377 0.552 4.578 1.231 8.263 3.626 11.02 7.176a772.86 772.86 0 0 1 17.583 18.263l-34.237 8.959-4.255-16.263-22.254 5.822-5.6-21.398 14.631 3.488c2.617-8.616 6.2-21.74 10.728-39.387l-23.678-6.607c-0.429 0.712-0.982 2.085-1.671 4.095-0.815 3.87-2.542 10.11-5.16 18.726l-23.739-90.726-24.82 6.493 19.483 74.465c-8.125-10.077-14.492-16.942-19.11-20.606-2.228 5.458-6.876 12.162-13.94 20.112z m52.51-64.953c52.821 3.855 95.303 22.919 127.448 57.19 14.431-14.75 21.777-22.774 22.055-24.06-0.15-0.575-2.03-1.913-5.623-4.015-2.31-1.842-5.701-4.311-10.168-7.401-3.036-2.264-7.146-5.145-12.326-8.663-5.196-3.528-8.94-6.207-11.247-8.031 4.482-8.488 14.057-21.969 28.742-40.443a141.221 141.221 0 0 1-28.708-15.351c-0.848 1.45-2.878 5.325-6.096 11.654-6.169 11.374-12.286 21.806-18.328 31.316-22.113-7.616-45.284-13.441-69.504-17.48-4.606 10.35-10.031 18.786-16.245 25.284zM624.813 304.846l26.203 100.14 70.184-18.363 10.973 41.94c16.543-4.328 26.162-7.16 28.877-8.47l5.993-1.568c-0.301-1.15-0.892-2.21-1.753-3.2-2.908-4.126-5.18-9.318-6.822-15.591l-5.598-21.398 74.465-19.483-25.53-97.575-31.67 8.286 3.36 12.839-42.796 11.198-19.036-72.754-30.813 8.062 19.036 72.753-41.94 10.973-4.03-15.406-29.103 7.617z m49.033 68.562l-9.853-37.66 41.94-10.975 9.853 37.662-41.94 10.973z m105.695-67.894l9.853 37.66-42.796 11.197-9.853-37.66 42.796-11.197z"  horiz-adv-x="1024" />

    
    <glyph glyph-name="tabledisable" unicode="&#58909;" d="M149.938 22.047c-92.639 92.649-149.938 220.637-149.938 362.007 0 282.76 229.222 511.982 511.982 511.982 282.76 0 511.982-229.222 511.982-511.982 0-141.371-57.298-269.359-149.938-362.008-92.652-92.661-220.655-149.974-362.044-149.974-141.389 0-269.392 57.313-362.044 149.974zM253.358 642.642c-66.196-66.182-107.139-157.618-107.139-258.618 0-75.098 22.636-144.909 61.458-202.982l505.953 508.117c-56.745 37.986-126.556 60.622-201.654 60.622-101 0-192.436-40.944-258.617-107.139zM817.050 585.666l-506.716-506.716c56.734-37.966 126.527-60.589 201.603-60.589 201.971 0 365.701 163.73 365.701 365.701 0 75.077-22.624 144.87-61.425 202.933z"  horiz-adv-x="1024" />

    
    <glyph glyph-name="set" unicode="&#58940;" d="M569.2 789l15.5-100.7 3.6-23.5 22.3-8.1c8.2-3 16.4-6.4 24.4-10.1l21.5-10.1 101.4 74.4 81-81-60.3-82.2-14-19.2 10.1-21.5c3.8-8 7.2-16.2 10.1-24.4l8.1-22.3 124.1-18.9v-114.6l-124.2-19.1-8.1-22.3c-3-8.2-6.4-16.4-10.2-24.5l-10.1-21.5 14-19.2 60.3-82.2-81-81-101.4 74.4-21.3-10.1c-8-3.8-16.2-7.2-24.4-10.1l-22.3-8.1-3.6-23.5-15.5-100.6h-114.6l-15.5 100.7-3.6 23.5-22.3 8.1c-8.2 3-16.4 6.4-24.4 10.1l-21.5 10.1-19.2-14-82.2-60.3-81 81 74.4 101.4-10 21.4c-3.8 8-7.2 16.2-10.1 24.4l-8.1 22.3-124.1 19.1v114.6l124.2 19.1 8.1 22.3c2.9 8.1 6.3 16.3 10.1 24.3l10.1 21.5-14.1 19.1-60.3 82.2 81 81 101.4-74.3 21.5 10.1c8 3.8 16.2 7.2 24.4 10.1l22.3 8.1 3.6 23.5 15.3 100.6h114.6M603.5 829h-183.2l-20.7-134.6c-9.5-3.4-18.7-7.3-27.7-11.5l-109.8 80.5-129.6-129.6 80.6-109.8c-4.2-9-8.1-18.2-11.5-27.6l-134.6-20.7v-183.2l134.6-20.7c3.4-9.5 7.3-18.7 11.5-27.7l-80.6-109.8 129.6-129.6 109.8 80.5c9-4.2 18.3-8.1 27.7-11.5l20.7-134.7h183.2l20.7 134.6c9.5 3.4 18.7 7.3 27.7 11.5l109.8-80.6 129.6 129.6-80.5 109.8c4.3 9.1 8.1 18.4 11.6 27.9l134.6 20.7v183.2l-134.6 20.7c-3.4 9.5-7.3 18.7-11.5 27.7l80.5 109.8-129.6 129.6-109.8-80.6c-9 4.2-18.3 8.1-27.7 11.5l-20.8 134.6zM512 539c41.4 0 80.3-16.1 109.6-45.4 29.3-29.3 45.4-68.2 45.4-109.6s-16.1-80.3-45.4-109.6c-29.3-29.3-68.2-45.4-109.6-45.4s-80.3 16.1-109.6 45.4c-29.3 29.3-45.4 68.2-45.4 109.6s16.1 80.3 45.4 109.6c29.3 29.3 68.2 45.4 109.6 45.4M512 579c-107.7 0-195-87.3-195-195s87.3-195 195-195 195 87.3 195 195-87.3 195-195 195z"  horiz-adv-x="1024" />

    
    <glyph glyph-name="zizhizhengshu" unicode="&#58941;" d="M39.890824 19.696941a28.340706 28.340706 0 0 0-22.272 10.330353c-4.969412 5.993412-7.589647 14.019765-7.589648 23.160471V690.085647c0 22.467765 14.155294 46.396235 32.948706 55.627294 4.096 2.032941 102.851765 50.462118 212.389647 50.462118 101.165176 0 155.045647-41.125647 166.204236-50.703059 25.961412-12.032 40.222118-31.036235 40.222117-53.684706v-636.912941c0-19.636706-16.865882-35.011765-38.4-35.011765a42.014118 42.014118 0 0 0-16.534588 3.328l-2.635294 1.114353-2.048 2.002824c-0.391529 0.376471-47.555765 44.423529-150.949647 44.423529-106.812235 0-192.346353-45.613176-193.204706-46.095059a37.797647 37.797647 0 0 0-18.130823-4.939294z m215.491764 746.360471c-102.550588 0-198.098824-46.863059-199.062588-47.344941-8.628706-4.246588-16.158118-17.618824-16.158118-28.626824v-636.912941a12.197647 12.197647 0 0 1 0.39153-3.282824 10.902588 10.902588 0 0 1 3.147294 1.219765c3.764706 2.048 93.184 49.724235 207.540706 49.724235 103.303529 0 156.837647-39.890824 169.261176-50.537411 4.111059-0.903529 11.173647 0.256 11.173647 4.577882V691.772235c0 13.583059-13.281882 22.256941-24.410353 27.120941l-2.439529 1.054118-1.942588 1.852235c-0.406588 0.391529-48.384 44.257882-147.501177 44.257883zM883.290353 19.456c-5.782588 0-11.851294 1.551059-17.814588 4.653176-0.888471 0.451765-91.196235 46.622118-200.026353 46.622118-102.113882 0-128.858353-39.830588-129.099294-40.222118l-2.288942-3.584-4.005647-2.108235c-3.975529-1.912471-16.007529-7.725176-26.759529-0.948706-11.369412 7.137882-11.369412 22.076235-11.369412 31.006118V691.772235c0 10.270118 0 40.583529 22.768941 53.12753 10.661647 11.128471 56.003765 51.260235 155.587765 51.260235 33.942588 0 64.150588-6.716235 93.349647-13.221647l1.746824-0.376471-6.53553-29.409882-1.746823 0.391529c-27.632941 6.144-56.184471 12.498824-86.829177 12.498824-97.566118 0-134.354824-42.496-134.701176-42.932706l-2.273883-2.725647-3.328-1.520941c-5.330824-2.334118-7.920941-11.203765-7.920941-27.120941v-632.591059c17.814588 16.263529 59.120941 41.652706 143.405177 41.652706 116.449882 0 210.010353-47.992471 213.940706-50.025412 1.972706-1.008941 3.207529-1.204706 3.734588-1.234824-0.060235 0.316235 0.316235 1.460706 0.316235 3.599059V474.352941h30.117647v-421.180235c0-12.995765-5.421176-23.762824-14.893176-29.500235a29.214118 29.214118 0 0 0-15.375059-4.216471zM425.984 18.778353l-0.180706 717.221647 94.629647-0.075294-0.707765-715.866353-93.741176-1.28zM455.920941 700.235294l0.180706-653.733647 33.551059-0.948706L490.285176 700.235294h-34.364235zM938.24 562.221176a15.058824 15.058824 0 0 0-9.893647 26.413177 116.419765 116.419765 0 0 1 39.966118 87.792941c0 64.195765-52.224 116.404706-116.389647 116.404706-31.879529 0-61.650824-12.649412-83.787295-35.599059a15.058824 15.058824 0 1 0-21.669647 20.916706 145.362824 145.362824 0 0 0 105.472 44.815059c80.790588 0 146.507294-65.731765 146.507294-146.522353a146.597647 146.597647 0 0 0-50.29647-110.501647 14.983529 14.983529 0 0 0-9.908706-3.71953zM777.758118 401.784471a7.499294 7.499294 0 0 0-7.454118 6.490353l-8.719059 62.403764-57.449412-25.825882a7.514353 7.514353 0 1 0-9.667764 10.511059l67.855059 122.774588a7.529412 7.529412 0 0 0 13.17647-7.303529l-56.922353-103.002353 46.019765 20.675764a7.529412 7.529412 0 0 0 10.541176-5.827764l6.987294-49.965177 64.030118 115.892706a7.529412 7.529412 0 0 0 13.176471-7.303529l-74.962824-135.664942a7.574588 7.574588 0 0 0-6.610823-3.855058zM930.951529 394.255059a15.028706 15.028706 0 0 0-13.17647 7.785412l-32.783059 59.301647a15.028706 15.028706 0 0 0 5.903059 20.449882 15.013647 15.013647 0 0 0 20.449882-5.903059l10.932706-19.772235 3.855059 27.587765a15.073882 15.073882 0 0 0 21.097412 11.655529l25.404235-11.429647-47.525647 86.016a15.028706 15.028706 0 0 0 5.903059 20.449882 15.013647 15.013647 0 0 0 20.449882-5.903059l69.376-125.545411a15.058824 15.058824 0 0 0-19.365647-21.007059l-48.293647 21.699765-7.318588-52.434824a15.058824 15.058824 0 0 0-12.16753-12.739765 20.992 20.992 0 0 0-2.740706-0.210823zM898.183529 453.556706a15.058824 15.058824 0 0 0-13.191529 7.785412l-40.809412 73.84847a15.028706 15.028706 0 0 0 5.903059 20.449883 15.028706 15.028706 0 0 0 20.449882-5.903059l40.809412-73.848471a15.028706 15.028706 0 0 0-13.161412-22.332235zM894.584471 620.619294a7.378824 7.378824 0 0 0-3.493647 0.873412l-35.358118 18.582588-35.358118-18.582588a7.499294 7.499294 0 1 0-10.917647 7.920941l6.746353 39.363765-28.581647 27.873882a7.529412 7.529412 0 0 0 4.156235 12.860235l39.529412 5.737412 17.679059 35.824941c2.529882 5.12 10.977882 5.12 13.492706 0l17.679059-35.824941 39.514353-5.737412a7.529412 7.529412 0 1 0 4.156235-12.860235l-28.581647-27.873882 6.761412-39.348706a7.529412 7.529412 0 0 0-7.424-8.809412z m-85.549177 76.16753l20.495059-19.968c1.776941-1.731765 2.590118-4.216471 2.183529-6.656l-4.833882-28.235295 25.359059 13.327059a7.574588 7.574588 0 0 0 7.002353 0l25.359059-13.327059-4.848942 28.220236a7.544471 7.544471 0 0 0 2.18353 6.671059l20.495059 19.968-28.340706 4.111058a7.529412 7.529412 0 0 0-5.662118 4.111059l-12.679529 25.690353-12.67953-25.690353a7.529412 7.529412 0 0 0-5.662117-4.111059l-28.370824-4.111058zM851.531294 544.662588c-72.432941 0-131.343059 58.910118-131.343059 131.343059a130.258824 130.258824 0 0 0 40.568471 94.945882 7.529412 7.529412 0 1 0 10.405647-10.887529 115.350588 115.350588 0 0 1-35.930353-84.058353c0-64.120471 52.163765-116.284235 116.284235-116.284235a116.088471 116.088471 0 0 1 77.658353 29.726117 7.529412 7.529412 0 1 0 10.059294-11.203764 131.087059 131.087059 0 0 0-87.702588-33.581177z"  horiz-adv-x="1024" />

    
    <glyph glyph-name="yanzhengmashibie" unicode="&#58968;" d="M56.418733 836.760331h197.465565V896H0v-256.705234h56.418733zM959.118457-65.939394h-197.465564v-56.418733h253.884297v253.884298h-56.418733zM959.118457 896h-197.465564v-59.239669h197.465564v-197.465565h56.418733V896zM56.418733 131.526171H0v-253.884298h253.884298v56.418733H56.418733zM197.465565 611.085399h112.837465v-564.187327H197.465565zM366.721763 738.027548h112.837466v-564.187328h-112.837466zM535.977961 653.399449h112.837466v-564.187328h-112.837466zM705.23416 596.980716h112.837465v-564.187328h-112.837465z"  horiz-adv-x="1024" />

    
    <glyph glyph-name="web_xiangxiazhankai" unicode="&#58958;" d="M483.7 412.964c7.59-7.491 17.673-10.569 27.57-9.797 9.898-0.772 19.98 2.206 27.478 9.797l311.233 311.718c13.739 13.74 13.739 36.026 0 49.858-13.739 13.738-36.025 13.738-49.764 0L511.27 485.106 222.215 774.54c-13.74 13.738-36.026 13.738-49.664 0-13.738-13.74-13.738-36.026 0-49.858L483.7 412.964z m436.603 9.318c-13.739 13.74-36.024 13.74-49.764 0L511.27 62.434 151.9 422.282c-13.738 13.74-36.025 13.74-49.763 0-13.74-13.738-13.74-36.024 0-49.856l381.555-382.133c7.59-7.49 17.673-10.569 27.57-9.797 9.898-0.772 19.979 2.205 27.478 9.797l381.555 382.133c13.74 13.832 13.74 36.118 0.008 49.856z"  horiz-adv-x="1024" />

    
    <glyph glyph-name="icon-test" unicode="&#58993;" d="M513.888 896c-282.75 0-511.996-229.25-511.996-512 0-174.154 86.987-327.979 219.863-420.475 25.938 90.337 91.558 158.35 180.838 189.337 24.082 8.647 51.96 14.53 80.924 16.435-69.941-12.852-68.991-12.54-68.028-12.248 24.129 7.506 52.006 12.371 80.839 13.515-53.139-6.519-51.919-6.294-50.706-6.052 17.949 3.776 38.712 6.109 59.959 6.452-34.267-2.331-32.896-2.139-31.513-1.981 11.74 1.447 25.415 2.316 39.276 2.397l-6.651-1.038c1.771-0.121 3.658-0.121 5.55 0h1.654c-130.471 0-236.663 103.671-240.858 233.121-0.146 0.092-0.292 0.167-0.438 0.258-8.296 155.104 131.788 250.454 233.392 248.537 2.629 0.087 5.254 0.2 7.904 0.2 2.517 0 5.004-0.113 7.496-0.188 29.392 0.5 61.938-7.083 93.212-21.863 38.84-18.179 70.965-45.043 94.861-78.228 13.093-1.93 49.851-66.913 45.489-148.455l-0.196-0.117c-4.121-129.521-110.337-233.263-240.863-233.263h25.983c14.799-1.151 28.144-2.982 41.232-5.53-25.774 4.013-24.395 3.822-23.003 3.643 17.989-2.25 34.041-5.631 49.585-10.198-31.927 7.527-28.656 6.919-25.406 6.269 1.254-0.25 2.513-0.479 3.754-0.746 29.464-6.308 55.501-15.626 79.803-27.879-52.391 20.854-51.37 20.521-50.336 20.2 3.283-1.021 6.538-2.083 9.763-3.204 89.25-30.962 154.896-98.954 180.913-189.271 132.788 92.504 219.708 246.279 219.708 420.371 0 282.75-229.25 512-512.004 512zM754.754 403.608c-63.754-39.792-230.933 17.762-280.608 105.492-46.325-81.262-124.821-153.238-201.113-105.633 4.196-129.45 110.383-233.121 240.858-233.121 130.521 0 236.737 103.742 240.862 233.262zM614.6 630.408c40.749-19.606 74.482-48.051 99.756-83.014-72.864 72.541-110.477 91.72-151.978 100.237zM521.388 652.271c-2.496 0.075-4.979 0.188-7.496 0.188-2.65 0-5.275-0.113-7.904-0.2 2.533-0.050 5.067-0.104 7.554-0.275 2.575 0.179 5.208 0.246 7.846 0.288zM441.979 163.796c1.204 0.254 2.425 0.479 3.637 0.721-1.212-0.242-2.433-0.471-3.637-0.721zM455.567 166.354zM553.929 168.987c1.4-0.158 2.779-0.35 4.171-0.529-1.392 0.179-2.771 0.371-4.171 0.529zM567.942 167.083zM412.617 156.154c0.954 0.296 1.904 0.608 2.867 0.9-0.962-0.292-1.908-0.604-2.867-0.9zM582.283 164.529c1.25-0.25 2.513-0.483 3.754-0.746-1.242 0.267-2.5 0.5-3.754 0.746zM612.417 157.071c1.033-0.313 2.054-0.646 3.087-0.967-1.029 0.321-2.050 0.654-3.087 0.967zM625.267 152.9l2.138-0.758c-6.016-16.783-15.068-31.158-26.595-43.133 33.266-5.429 28.962-120.563 3.195-102.367l-90.117 63.308 2.95 2.079c-0.983-0.025-1.962-0.075-2.95-0.075-1.029 0-2.046 0.054-3.071 0.079l2.95-2.083-90.117-63.308c-25.913-18.229-30.204 97.329-12.883 123.471-8.405 13.702-14.218 29.888-16.324 47.218 6.678-24.98 7.407-24.722 8.141-24.468-89.279-30.992-154.9-99.004-180.838-189.337 82.854-57.679 183.537-91.525 292.138-91.525 108.667 0 209.404 33.888 292.292 91.629-26.013 90.317-91.658 158.313-180.908 189.271zM469.929 168.462c1.379 0.175 2.75 0.367 4.133 0.525-1.387-0.158-2.754-0.35-4.133-0.525zM410.771 130.112c3.442 5.196 7.733 6.879 12.883 3.258l45.117-31.654 42.046-29.688c1.025-0.025 2.042-0.079 3.071-0.079 0.987 0 1.962 0.050 2.95 0.075l42.054 29.692 45.117 31.654c5.175 3.654 9.475 1.913 12.925-3.388 8.441 13.722 14.278 29.937 16.389 47.301l-8.052-24.385c-24.663 8.842-53.214 14.861-82.875 16.818 72.080-13.293 71.059-12.959 70.025-12.647-24.097 7.492-51.936 12.349-80.731 13.492 53.106-6.517 51.844-6.283 50.598-6.033-18.317 3.839-39.55 6.257-61.269 6.694 32.182-1.743 15.036-0.26-2.415-0.042 38.113-2.544 36.734-2.353 35.334-2.194-11.701 1.445-25.33 2.313-39.145 2.393l-2.551-1.035c-1.892-0.121-3.779-0.121-5.55 0h-18.546c-14.85-1.154-28.24-2.989-41.374-5.542 25.907 4.025 24.54 3.834 23.161 3.659-19.646-2.496-37.14-6.192-54.090-11.16 36.386 8.485 33.069 7.873 29.777 7.214-1.212-0.242-2.429-0.467-3.637-0.721-29.504-6.311-55.576-15.639-79.912-27.909 52.454 20.88 51.508 20.563 50.55 20.267-29.76-9.35-55.652-21.793-79.31-37.353 73.082 16.57 82.094 2.247 93.568-9.694zM604.008 133.375l-45.117-31.654-45.004-31.771 90.117-63.308c25.767-18.196 30.071 96.938 12.925 123.342-3.446 5.304-7.746 7.046-12.921 3.392zM423.654 133.375c-5.15 3.621-9.442 1.938-12.883-3.258-17.321-26.138-13.029-141.7 12.883-123.471l90.117 63.308-44.996 31.771-45.121 31.65zM474.146 509.1c49.675-87.729 216.854-145.283 280.608-105.492l0.196 0.117c4.362 81.546-32.392 146.529-83.004 189.6-32.348 27.683-72.064 47.703-115.793 56.764 27.172-4.902-5.374 2.682-34.766 2.182-2.638-0.046-5.271-0.108-7.85-0.283 8.342-29.533-8.271-88.3-39.392-142.888zM474.146 509.1c31.121 54.587 47.733 113.354 39.392 142.887-2.792 0.181-6.057 0.285-9.346 0.286-99.808 1.905-239.891-93.445-231.6-248.549 0.146-0.092 0.292-0.167 0.438-0.258 76.296-47.604 154.792 24.371 201.117 105.633z"  horiz-adv-x="1025" />

    
    <glyph glyph-name="icon-test-copy" unicode="&#59000;" d="M295.074 337.365c-0.058 16.724-0.507 32.912-0.582 48.403-1.047-16.994-0.843-33.116 0.582-48.403zM544.021 118.854l-0.125-0.012c0.042 0.008 0.071 0 0.125 0.012zM511.861 895.958c-281.893 0-510.332-228.435-510.332-510.448 0-188.419 102.073-352.985 253.936-441.421 15.341 43.19 40.323 78.383 71.458 105.488 24.683 21.697 53.832 38.811 86.466 50.521-59.332 51.66-61.069 65.725-40.693 63.785-30.232 23.648-53.072 55.464-65.308 92.131-243.595-19.382-27.481 494.415 204.825 372.299 98.143 51.61 192.411-9.662 249.625-99.385 78.968-122.644 88.71-298.555-57.808-311.715-13.384-22.241-30.595-40.759-50.359-55.581 10.107-3.402 5.799-20.006-28.534-61.783h-0.262c32.539-11.76 61.6-28.9 86.205-50.605 27.255-23.819 49.761-53.865 65.189-90.047 0.137-0.324 0.262-0.66 0.403-0.985 1.022-2.422 2.048-4.839 3.008-7.319 145.616 89.914 242.629 250.925 242.629 434.616 0.004 282.014-228.439 510.448-510.448 510.448zM776.274-40.803c-15.432 36.182-37.939 66.224-65.189 90.047 27.894-24.604 50.085-55.033 65.189-90.047zM326.927 49.573c-31.135-27.101-56.117-62.294-71.458-105.488l0.008-0.004c14.984 41.561 39.459 77.373 71.449 105.492zM543.535 118.804c0.006-0 0.014-0 0.021-0 0.121 0 0.238 0.014 0.351 0.040l0.114 0.010c8.557 1.79 89.054 49.716 109.65 42.778 19.765 14.822 36.975 33.34 50.359 55.581-4.968-0.444-10.094-0.727-15.428-0.789 34.736 50.397 52.279 112.334 41.918 193.582l-218.544-1.047-215.246 1.047c-1.767-13.328-2.816-28.808-2.893-44.519 0.729 4.794 1.173-11.391 1.235-28.119 4.399-47.231 20.014-86.757 43.576-120.941-5.569 0.067-10.958 0.34-16.29 0.813 23.442-33.497 52.485-59.651 87.095-75.918-5.154 19.562 79.634-21.95 85.217-21.447 19.782-2.484 28.846-1.657 48.864-1.072zM779.63-49.136l0.054 0.033c-0.955 2.48-1.986 4.898-3.008 7.319 1.034-2.422 1.99-4.889 2.954-7.353zM776.274-40.803c-15.104 35.014-37.299 65.443-65.189 90.047-24.604 21.705-53.666 38.844-86.205 50.605l-211.337 0.116c-0.397 0.37-0.873 0.662-1.398 0.849-31.381-12.431-60.53-29.545-85.214-51.242-31.994-28.123-56.466-63.935-71.449-105.492 75.338-43.871 162.913-69.019 256.383-69.019 98.222 0 189.931 27.753 267.765 75.799-9.347 24.096-21.456 44.91-36.283 63.456l32.927-55.119zM624.88 99.849h0.262c34.337 41.777 38.641 58.381 28.534 61.783-20.596 6.937-101.097-40.988-109.65-42.778-0.054-0.012-0.083-0.004-0.125-0.012-0.102-0.024-0.218-0.038-0.338-0.038-0.008 0-0.016 0-0.024 0-20.013-0.59-29.081-1.412-48.863 1.063-5.583-0.503-90.371 41.009-121.971 44.016-20.371 1.94-18.639-12.13 40.693-63.785 0.397-0.37 0.873-0.662 1.398-0.849l210.084 0.6zM761.839 528.928c-57.214 89.723-151.481 150.995-249.625 99.385 97.499 51.257 191.991-9.87 249.625-99.385zM295.074 337.365c-1.421 15.291-1.628 31.413-0.582 48.403 0.486 7.901 1.184 15.943 2.239 24.235l215.246-1.047v219.358h0.237c-232.306 122.116-448.416-391.676-186.737-411.325 4.262-0.32 8.653-0.515 13.168-0.569-23.558 34.188-39.177 73.709-43.572 120.945zM511.981 408.955v-0.012h2.592l215.952 1.059c10.36-81.249-7.182-143.186-41.918-193.582 6.39 0.083 12.576 0.451 18.68 1.092 143.265 12.858 133.524 188.769 54.556 311.413-57.633 89.515-152.125 150.642-249.625 99.385h-0.237v-219.354z"  horiz-adv-x="1025" />

    
    <glyph glyph-name="gongyingshangzhifu" unicode="&#58904;" d="M864 768h-704a128 128 0 0 1-128-128v-512a128 128 0 0 1 128-128h704a128 128 0 0 1 128 128V640a128 128 0 0 1-128 128z m64-640a64 64 0 0 0-64-64h-704a64 64 0 0 0-64 64V640a64 64 0 0 0 64 64h704a64 64 0 0 0 64-64v-512zM832 416h-192a32 32 0 0 1 0-64h192a32 32 0 0 1 0 64zM832 288h-192a32 32 0 0 1 0-64h192a32 32 0 0 1 0 64zM832 544h-192a32 32 0 0 1 0-64h192a32 32 0 0 1 0 64zM224.32 575.744c-15.808-63.68-37.44-116.736-64.832-159.104 1.024-11.712 3.136-30.272 6.336-55.68 1.024-15.936 2.112-28.16 3.136-36.672 9.472 12.736 18.432 25.408 26.88 38.208v-168.64h61.696v284.8c11.648 24.384 22.208 51.456 31.68 81.152l-64.896 15.936zM493.376 445.248h41.152v58.88h-41.152V574.144h-61.696v-70.016h-50.688V574.144h-61.696v-70.016h-41.152v-58.88h41.152v-74.752h-49.024v-58.816h71.168l-6.336-6.4c-29.568-33.984-52.224-57.344-68.032-70.016l49.024-43.008c11.584 11.712 27.968 29.184 49.088 52.48 12.672 13.824 22.656 24.96 30.08 33.408l-49.088 33.472h109.184l-42.688-35.008c20.032-21.248 46.912-48.256 80.704-81.216l49.024 42.944a156.608 156.608 0 0 0-25.344 23.872l-53.76 49.408H544v58.88h-50.624V445.248z m-61.696-74.752h-50.688V445.248h50.688v-74.752z"  horiz-adv-x="1024" />

    
    <glyph glyph-name="authorise" unicode="&#59071;" d="M726.3 133c79 4.3 141.6 69.7 141.6 149.8 0 82.8-67.2 150-150 150s-150-67.2-150-150c0-80 62.7-145.4 141.6-149.8-104.3-3.8-192.5-79.3-226.5-184h53.2c31.6 79.1 101.2 134.2 181.8 134.2s150.1-55.1 181.7-134.2h53.2c-34 104.7-122.2 180.2-226.6 184zM617.9 282.8c0 55.1 44.9 100 100 100s100-44.9 100-100-44.9-100-100-100-100 44.9-100 100zM701 669h-50v50h50v-50zM811 669h-50v50h50v-50zM67 819v-870h336.6v50h-286.6v573h790v-419.1h50v666.1h-890zM907 622h-790v147h790v-147z"  horiz-adv-x="1024" />

    
    <glyph glyph-name="icon-p_gongyingshangfenpei" unicode="&#58883;" d="M806.912 542.72c84.992 0 153.6 68.608 153.6 153.6s-68.608 153.6-153.6 153.6-153.6-68.608-153.6-153.6c0-16.384 3.072-32.768 7.168-47.104L328.704 458.752c-27.648 29.696-67.584 49.152-111.616 49.152-84.992 0-153.6-68.608-153.6-153.6s68.608-153.6 153.6-153.6c49.152 0 93.184 23.552 120.832 59.392l218.112-123.904c-9.216-19.456-14.336-41.984-14.336-64.512 0-84.992 68.608-153.6 153.6-153.6s153.6 68.608 153.6 153.6-68.608 153.6-153.6 153.6c-47.104 0-89.088-21.504-116.736-54.272L359.424 295.936c7.168 18.432 11.264 37.888 11.264 58.368 0 25.6-6.144 50.176-17.408 71.68l325.632 186.368c27.648-41.984 74.752-69.632 128-69.632z m-111.616-358.4c62.464 0 112.64-50.176 112.64-112.64s-50.176-112.64-112.64-112.64-112.64 50.176-112.64 112.64 50.176 112.64 112.64 112.64z m-478.208 57.344c-62.464 0-112.64 50.176-112.64 112.64s50.176 112.64 112.64 112.64 112.64-50.176 112.64-112.64-50.176-112.64-112.64-112.64zM806.912 808.96c62.464 0 112.64-50.176 112.64-112.64s-50.176-112.64-112.64-112.64-112.64 50.176-112.64 112.64 50.176 112.64 112.64 112.64z"  horiz-adv-x="1024" />

    
    <glyph glyph-name="icon-p_mrpjinduzhuizong" unicode="&#58888;" d="M104.448 626.688H225.28c9.216-50.176 53.248-88.064 106.496-88.064s97.28 37.888 106.496 88.064h481.28c11.264 0 20.48 9.216 20.48 20.48s-9.216 20.48-20.48 20.48h-481.28c-9.216 50.176-53.248 88.064-106.496 88.064s-97.28-37.888-106.496-88.064H104.448c-11.264 0-20.48-9.216-20.48-20.48s9.216-20.48 20.48-20.48z m227.328 88.064c36.864 0 67.584-30.72 67.584-67.584s-30.72-67.584-67.584-67.584-67.584 30.72-67.584 67.584 30.72 67.584 67.584 67.584zM919.552 404.48H797.696c-9.216 50.176-53.248 88.064-106.496 88.064S593.92 454.656 584.704 404.48H104.448c-11.264 0-20.48-9.216-20.48-20.48s9.216-20.48 20.48-20.48h480.256c9.216-50.176 53.248-88.064 106.496-88.064S788.48 313.344 797.696 363.52h121.856c11.264 0 20.48 9.216 20.48 20.48s-9.216 20.48-20.48 20.48z m-228.352-88.064c-36.864 0-67.584 30.72-67.584 67.584 0 36.864 30.72 67.584 67.584 67.584 35.84 0 64.512-27.648 67.584-62.464 0-2.048-1.024-3.072-1.024-5.12s0-3.072 1.024-5.12c-3.072-34.816-31.744-62.464-67.584-62.464zM919.552 141.312H667.648c-9.216 50.176-53.248 88.064-106.496 88.064s-97.28-37.888-106.496-88.064H104.448c-11.264 0-20.48-9.216-20.48-20.48s9.216-20.48 20.48-20.48h350.208c9.216-50.176 53.248-88.064 106.496-88.064s97.28 37.888 106.496 88.064h251.904c11.264 0 20.48 9.216 20.48 20.48s-9.216 20.48-20.48 20.48z m-358.4-88.064c-36.864 0-67.584 30.72-67.584 67.584 0 36.864 30.72 67.584 67.584 67.584 35.84 0 64.512-27.648 67.584-62.464 0-2.048-1.024-3.072-1.024-5.12s0-3.072 1.024-5.12c-3.072-34.816-31.744-62.464-67.584-62.464z"  horiz-adv-x="1024" />

    
    <glyph glyph-name="jibenziliao1" unicode="&#58886;" d="M917.333333 384c-12.8 0-21.333333-8.533333-21.333333-21.333333v-85.333334c0-12.8 8.533333-21.333333 21.333333-21.333333s21.333333 8.533333 21.333334 21.333333v85.333334c0 12.8-8.533333 21.333333-21.333334 21.333333zM902.4 462.933333c-4.266667-4.266667-6.4-8.533333-6.4-14.933333 0-2.133333 0-6.4 2.133333-8.533333s2.133333-4.266667 4.266667-6.4c4.266667-4.266667 10.666667-6.4 14.933333-6.4h4.266667c2.133333 0 2.133333 0 4.266667 2.133333 2.133333 0 2.133333 2.133333 4.266666 2.133333s2.133333 2.133333 4.266667 2.133334c2.133333 2.133333 4.266667 4.266667 4.266667 6.4V448c0 6.4-2.133333 10.666667-6.4 14.933333-8.533333 8.533333-21.333333 8.533333-29.866667 0zM938.666667 597.333333c0 2.133333 0 4.266667-2.133334 8.533334-2.133333 2.133333-2.133333 4.266667-4.266666 6.4l-256 256c-2.133333 2.133333-4.266667 4.266667-6.4 4.266666-2.133333 2.133333-6.4 2.133333-8.533334 2.133334H213.333333C142.933333 874.666667 85.333333 817.066667 85.333333 746.666667v-725.333334c0-70.4 57.6-128 128-128h597.333334c70.4 0 128 57.6 128 128v170.666667c0 12.8-8.533333 21.333333-21.333334 21.333333s-21.333333-8.533333-21.333333-21.333333v-170.666667c0-46.933333-38.4-85.333333-85.333333-85.333333H213.333333c-46.933333 0-85.333333 38.4-85.333333 85.333333V746.666667c0 46.933333 38.4 85.333333 85.333333 85.333333h426.666667v-128c0-70.4 57.6-128 128-128h128v-42.666667c0-12.8 8.533333-21.333333 21.333333-21.333333s21.333333 8.533333 21.333334 21.333333v64zM682.666667 704V802.133333l183.466666-183.466666H768c-46.933333 0-85.333333 38.4-85.333333 85.333333zM234.666667 597.333333h277.333333c12.8 0 21.333333 8.533333 21.333333 21.333334s-8.533333 21.333333-21.333333 21.333333H234.666667c-12.8 0-21.333333-8.533333-21.333334-21.333333s8.533333-21.333333 21.333334-21.333334zM768 405.333333H234.666667c-12.8 0-21.333333-8.533333-21.333334-21.333333s8.533333-21.333333 21.333334-21.333333h533.333333c12.8 0 21.333333 8.533333 21.333333 21.333333s-8.533333 21.333333-21.333333 21.333333zM768 170.666667H234.666667c-12.8 0-21.333333-8.533333-21.333334-21.333334s8.533333-21.333333 21.333334-21.333333h533.333333c12.8 0 21.333333 8.533333 21.333333 21.333333s-8.533333 21.333333-21.333333 21.333334z"  horiz-adv-x="1024" />

    
    <glyph glyph-name="gongsi" unicode="&#58880;" d="M687.5 453H635.4c-2.8 0-5.1 4.1-5.1 9.2l-0.5 93c0 5.1 2.3 9.3 5.1 9.3 4.5 0 6.8 9.8 3.6 15.7l-58.1 68.2c-4.1 7.8-10.9 7.8-15 0l-58.1-68.2c-3.1-5.9-0.8-15.7 3.6-15.7 2.8 0 5.1-4.1 5.1-9.2v-90.6c0-5.1-2.3-9.2-5.1-9.2h-71.6c-2.8 0-5.1 4.1-5.1 9.2V565.1c0 5.1-2.3 9.2-5.1 9.2h-92.8c-2.8 0-5.1-4.1-5.1-9.2v-396c0-5.1 2.3-9.2 5.1-9.2h351.1c2.8 0 5.1 4.1 5.1 9.2V443.8c0.1 5.1-2.2 9.2-5 9.2zM394.1 234.9c0-6.4-3.2-11.5-7.1-11.5h-17.6c-3.9 0-7.1 5.2-7.1 11.5v28.6c0 6.4 3.2 11.5 7.1 11.5H387c3.9 0 7.1-5.2 7.1-11.5v-28.6z m0 65.5c0-6.4-3.2-11.5-7.1-11.5h-17.6c-3.9 0-7.1 5.2-7.1 11.5V329c0 6.4 3.2 11.5 7.1 11.5H387c3.9 0 7.1-5.2 7.1-11.5v-28.6z m0 65.5c0-6.4-3.2-11.5-7.1-11.5h-17.6c-3.9 0-7.1 5.2-7.1 11.5v28.6c0 6.4 3.2 11.5 7.1 11.5H387c3.9 0 7.1-5.2 7.1-11.5v-28.6z m0 65.5c0-6.4-3.2-11.5-7.1-11.5h-17.6c-3.9 0-7.1 5.2-7.1 11.5V460c0 6.4 3.2 11.5 7.1 11.5H387c3.9 0 7.1-5.2 7.1-11.5v-28.6z m0 65.5c0-6.4-3.2-11.5-7.1-11.5h-17.6c-3.9 0-7.1 5.2-7.1 11.5v28.6c0 6.4 3.2 11.5 7.1 11.5H387c3.9 0 7.1-5.2 7.1-11.5v-28.6z m206.7-1.7c0-6.8-5.5-12.4-12.4-12.4h-30.7c-6.8 0-12.4 5.5-12.4 12.4v30.7c0 6.8 5.5 12.4 12.4 12.4h30.7c6.8 0 12.4-5.5 12.4-12.4v-30.7zM759.2 119.2H264.8c-22.4 0-40.6 18.2-40.6 40.6s18.2 40.6 40.6 40.6h494.4c22.4 0 40.6-18.2 40.6-40.6s-18.2-40.6-40.6-40.6zM735.5-63h-447C165.3-63 65 37.3 65 160.5v447C65 730.7 165.3 831 288.5 831h447C858.7 831 959 730.7 959 607.5v-447C959 37.3 858.7-63 735.5-63z m-447 812.7c-78.4 0-142.2-63.8-142.2-142.2v-447c0-78.4 63.8-142.2 142.2-142.2h447c78.4 0 142.2 63.8 142.2 142.2v447c0 78.4-63.8 142.2-142.2 142.2h-447z"  horiz-adv-x="1024" />

    
    </font>
</defs>
</svg>
